<svg width="828" height="760" viewBox="0 0 828 760" fill="none" xmlns="http://www.w3.org/2000/svg">
<rect width="828" height="760" fill="#E5E5E5"/>
<g id="Asset 80 1" clip-path="url(#clip0)">
<g id="Layer 2">
<g id="Layer 1">
<path id="Vector" d="M67.3083 744.907C98.38 743.898 121.032 664.968 117.903 568.612C114.774 472.256 87.0485 394.962 55.9768 395.971C24.905 396.98 2.25308 475.91 5.3822 572.266C8.51132 668.622 36.2366 745.916 67.3083 744.907Z" fill="#FB8A51"/>
<path id="Vector_2" d="M118.75 610.61C115.17 686.89 94.85 744 68.45 744.86C57.06 745.23 45.28 734.28 41.64 724.35C59.29 718.44 72.39 709.95 82.83 693.9C98.93 669.18 112.5 639.48 118.75 610.61Z" fill="#DC7948"/>
<path id="Vector_3" d="M67.3083 744.907C98.38 743.898 121.032 664.968 117.903 568.612C114.774 472.256 87.0485 394.962 55.9768 395.971C24.905 396.98 2.25308 475.91 5.3822 572.266C8.51132 668.622 36.2366 745.916 67.3083 744.907Z" stroke="#314E5D" stroke-width="8" stroke-miterlimit="10"/>
<path id="Vector_4" d="M44.6245 606.829C55.6092 606.472 63.729 582.01 62.7607 552.191C61.7923 522.373 52.1025 498.489 41.1178 498.846C30.1331 499.202 22.0133 523.664 22.9817 553.483C23.95 583.302 33.6398 607.186 44.6245 606.829Z" fill="#FFC4A5"/>
<path id="Vector_5" d="M45.3231 628.414C48.7731 628.302 51.479 625.415 51.367 621.965C51.2549 618.515 48.3674 615.809 44.9174 615.921C41.4674 616.033 38.7615 618.921 38.8735 622.371C38.9856 625.821 41.8731 628.526 45.3231 628.414Z" fill="#FFC4A5"/>
<path id="Vector_6" d="M78.59 446.54C90.23 465.61 92.9 486.46 95.38 508.24C97.92 530.55 99.89 552.98 97.67 575.4C97.48 577.32 100.48 577.31 100.67 575.4C103.02 551.65 100.67 527.91 97.93 504.3C95.5 483.3 92.37 463.35 81.18 445.03C80.18 443.38 77.58 444.89 78.59 446.54V446.54Z" fill="#314E5D"/>
<path id="Vector_7" d="M7.93998 355.72C10.13 312.84 68.94 238.43 68.94 238.43C68.94 238.43 119.54 318.43 117.35 361.31C115.16 404.19 86.74 418.4 56.54 416.86C26.34 415.32 5.74998 398.6 7.93998 355.72Z" fill="#BC7947"/>
<path id="Vector_8" d="M68.92 238.43C68.92 238.43 66.37 241.65 62.33 247.13C76.13 270.89 105.43 325.53 103.76 358.38C101.57 401.26 73.18 415.47 42.97 413.93C41.35 413.85 39.76 413.71 38.2 413.54C44.1284 415.497 50.3017 416.615 56.54 416.86C86.75 418.4 115.14 404.19 117.33 361.31C119.52 318.43 68.92 238.43 68.92 238.43Z" fill="#9D653D"/>
<path id="Vector_9" d="M68.77 238.42L26.82 301.42C26.82 301.42 40 330.12 73.61 314.54C73.61 314.54 92.31 301.62 111.28 325.84C111.28 325.84 104.15 303.72 68.77 238.42Z" fill="#42EFE2"/>
<path id="Vector_10" d="M49.7103 297.857C53.0118 293.299 54.1365 288.48 52.2222 287.094C50.3079 285.707 46.0796 288.277 42.7781 292.835C39.4765 297.393 38.3519 302.211 40.2661 303.598C42.1804 304.985 46.4087 302.414 49.7103 297.857Z" fill="#FCFCFC"/>
<path id="Vector_11" d="M58.7018 282.509C60.2603 280.358 60.7912 278.084 59.8878 277.429C58.9843 276.775 56.9885 277.988 55.4301 280.139C53.8716 282.291 53.3407 284.565 54.2441 285.22C55.1476 285.874 57.1434 284.661 58.7018 282.509Z" fill="#FCFCFC"/>
<path id="Vector_12" d="M24.1 304.74C26.1698 308.949 29.0644 312.698 32.6117 315.767C36.1591 318.835 40.2869 321.158 44.75 322.6C53.75 325.39 63.26 323.85 71.86 320.41C73.63 319.7 75.16 318.82 76.86 318.01C77.26 317.82 77.67 317.65 78.08 317.47C78.22 317.41 78.97 317.13 78.36 317.35L79.22 317.06C80.5518 316.642 81.9167 316.337 83.3 316.15C93.6 314.75 102.74 321.89 108.99 329.77C111.35 332.77 115.71 328.77 113.36 325.82C107 317.85 98.47 311 88 310.19C82.731 309.788 77.4592 310.931 72.83 313.48C66.1888 317.189 58.568 318.767 51 318C44.9434 317.163 39.3401 314.326 35.08 309.94C34.1148 308.963 33.2066 307.931 32.36 306.85C32.01 306.4 31.67 305.94 31.36 305.48C31.05 305.02 31.6 305.86 31.21 305.26L30.85 304.71C30.2815 303.843 29.7736 302.937 29.33 302C27.74 298.56 22.51 301.27 24.1 304.71V304.74Z" fill="#314E5D"/>
<path id="Vector_13" d="M8.91001 355.31C11.1 312.43 69.91 238.02 69.91 238.02C69.91 238.02 120.51 318.02 118.32 360.9C116.13 403.78 87.71 418 57.51 416.45C27.31 414.9 6.72001 398.19 8.91001 355.31Z" stroke="#314E5D" stroke-width="8" stroke-miterlimit="10"/>
<path id="Vector_14" d="M54.4716 352.166C56.0231 340.351 53.7527 330.309 49.4005 329.738C45.0483 329.166 40.2624 338.281 38.7108 350.097C37.1593 361.912 39.4297 371.954 43.7819 372.525C48.1341 373.097 52.9201 363.982 54.4716 352.166Z" fill="#D0A07B"/>
<path id="Vector_15" d="M94.6183 386.727L23.3127 387.523C12.5439 387.643 3.91148 396.471 4.03178 407.24L4.09154 412.589C4.21183 423.358 13.0393 431.991 23.8081 431.87L95.1137 431.074C105.883 430.953 114.515 422.126 114.395 411.357L114.335 406.007C114.215 395.239 105.387 386.606 94.6183 386.727Z" fill="#D8D9D9"/>
<path id="Vector_16" d="M82.11 391.89L33.11 392.43C33.1335 394.581 33.5805 396.706 34.4255 398.685C35.2705 400.663 36.4968 402.456 38.0346 403.96C39.5724 405.464 41.3914 406.651 43.3878 407.452C45.3842 408.254 47.5189 408.654 49.67 408.63L65.95 408.45C70.2874 408.392 74.4246 406.616 77.4541 403.511C80.4837 400.407 82.1581 396.227 82.11 391.89V391.89Z" fill="white"/>
<path id="Vector_17" d="M23.7418 431.873L95.0473 431.077C105.816 430.957 114.449 422.129 114.328 411.36L114.269 406.011C114.148 395.242 105.321 386.609 94.5519 386.73L23.2464 387.526C12.4775 387.647 3.8451 396.474 3.9654 407.243L4.02516 412.593C4.14545 423.361 12.9729 431.994 23.7418 431.873Z" stroke="#314E5D" stroke-width="8" stroke-miterlimit="10"/>
<path id="Vector_18" d="M28.59 377C27.1512 371.989 27.0047 366.695 28.164 361.612C29.3233 356.529 31.7507 351.822 35.22 347.93C36.5 346.49 34.38 344.36 33.1 345.81C29.2642 350.085 26.5737 355.261 25.2797 360.857C23.9857 366.453 24.1303 372.285 25.7 377.81C25.8152 378.183 26.0711 378.496 26.4133 378.683C26.7556 378.87 27.1573 378.917 27.5333 378.813C27.9093 378.709 28.23 378.462 28.4272 378.126C28.6245 377.789 28.6829 377.389 28.59 377.01V377Z" fill="#314E5D"/>
<path id="Vector_19" d="M34.22 366.05C33.8107 363.971 33.9824 361.819 34.7163 359.83C35.4501 357.842 36.7178 356.095 38.38 354.78C39.87 353.55 37.74 351.44 36.26 352.66C34.2226 354.351 32.6863 356.567 31.8173 359.068C30.9484 361.569 30.7799 364.26 31.33 366.85C31.71 368.74 34.6 367.94 34.22 366.05Z" fill="#314E5D"/>
<path id="Vector_20" d="M88.55 370C91.8373 367.218 94.0255 363.355 94.7219 359.105C95.4184 354.855 94.5774 350.496 92.35 346.81C91.35 345.16 88.76 346.67 89.76 348.32C91.6538 351.433 92.3597 355.125 91.7479 358.717C91.136 362.309 89.2476 365.56 86.43 367.87C84.95 369.11 87.08 371.22 88.55 369.99V370Z" fill="#314E5D"/>
<path id="Vector_21" d="M689.07 317.19L729.5 287C733.66 283.901 738.881 282.582 744.013 283.332C749.146 284.082 753.771 286.84 756.87 291L818.52 373.5C821.619 377.66 822.938 382.881 822.188 388.013C821.438 393.146 818.68 397.771 814.52 400.87L685.52 497.24C681.584 500.184 678.979 504.57 678.276 509.434C677.572 514.298 678.829 519.242 681.77 523.18" stroke="#314E5D" stroke-width="11" stroke-miterlimit="10"/>
<path id="Vector_22" d="M420.801 -0.0034375L227.9 154.982L499.264 492.733L692.166 337.747L420.801 -0.0034375Z" fill="#FFE48D"/>
<path id="Vector_23" d="M815.86 652.34L772 685.08C768.507 687.682 764.125 688.794 759.814 688.172C755.503 687.55 751.614 685.244 749 681.76L669.42 556.88C666.818 553.387 665.706 549.005 666.328 544.694C666.95 540.383 669.256 536.494 672.74 533.88L699 514.27C702.493 511.668 706.875 510.556 711.186 511.178C715.497 511.8 719.386 514.106 722 517.59L819.18 629.37C821.773 632.861 822.879 637.236 822.257 641.54C821.635 645.844 819.335 649.726 815.86 652.34V652.34Z" fill="#F65020"/>
<path id="Vector_24" d="M765.7 671.9L686.05 547C683.448 543.507 682.336 539.125 682.958 534.814C683.58 530.503 685.886 526.614 689.37 524L674 535.56C670.516 538.174 668.21 542.063 667.588 546.374C666.966 550.685 668.078 555.067 670.68 558.56L750.3 683.41C752.914 686.894 756.803 689.2 761.114 689.822C765.425 690.444 769.807 689.332 773.3 686.73L788.7 675.22C785.207 677.822 780.825 678.934 776.514 678.312C772.203 677.69 768.314 675.384 765.7 671.9V671.9Z" fill="#FF7B52"/>
<path id="Vector_25" d="M624.309 311.249L489.1 412.287C469.338 427.055 465.289 455.047 480.057 474.809L487.396 484.63C502.164 504.393 530.156 508.441 549.919 493.673L685.127 392.635C704.889 377.867 708.938 349.875 694.17 330.113L686.831 320.292C672.063 300.53 644.071 296.481 624.309 311.249Z" fill="#FFE48D"/>
<path id="Vector_26" d="M684.6 373.37L533.75 486.08C526.323 491.6 517.012 493.954 507.854 492.627C498.695 491.301 490.435 486.401 484.88 479L490.22 486.15C495.777 493.546 504.035 498.442 513.191 499.767C522.347 501.092 531.655 498.738 539.08 493.22L689.94 380.52C697.335 374.962 702.229 366.702 703.552 357.547C704.875 348.391 702.519 339.084 697 331.66L691.66 324.51C697.179 331.934 699.535 341.241 698.212 350.397C696.889 359.552 691.995 367.812 684.6 373.37Z" fill="#F9C441"/>
<path id="Vector_27" d="M630.83 307.28L482.6 418C467.49 429.29 464.52 451.12 476.02 466.5L478.02 469.17C475.873 462.392 475.873 455.116 478.021 448.339C480.17 441.561 484.36 435.613 490.02 431.31L638.25 320.59C653.36 309.3 675.13 312.64 686.63 328.02L703.63 350.81C702.441 346.979 700.604 343.381 698.2 340.17L679.2 314.71C667.71 299.33 645.94 296 630.83 307.28Z" fill="#FFF2CF"/>
<path id="Vector_28" d="M487.87 474.26C553 425.61 618.64 377.68 683.77 329C687.66 326.1 689.65 321.22 687 316.69C684.76 312.86 678.6 310.54 674.69 313.46C609.57 362.11 543.91 410.04 478.79 458.69C474.9 461.59 472.91 466.47 475.56 471C477.8 474.83 483.96 477.15 487.87 474.23V474.26Z" fill="#FFF2CF"/>
<path id="Vector_29" d="M623.894 307.952L488.862 409.226C469.126 424.028 465.126 452.028 479.928 471.764L487.284 481.572C502.086 501.308 530.086 505.308 549.822 490.506L684.854 389.232C704.59 374.43 708.59 346.43 693.788 326.694L686.432 316.886C671.63 297.15 643.63 293.15 623.894 307.952Z" stroke="#314E5D" stroke-width="9" stroke-miterlimit="10"/>
<path id="Vector_30" d="M815.45 651.79L771.63 684.54C768.137 687.142 763.755 688.254 759.444 687.632C755.133 687.01 751.244 684.704 748.63 681.22L669 556.33C666.398 552.837 665.286 548.455 665.908 544.144C666.53 539.833 668.836 535.944 672.32 533.33L698.61 513.68C702.103 511.078 706.485 509.966 710.796 510.588C715.107 511.21 718.996 513.516 721.61 517L818.79 628.78C821.393 632.276 822.504 636.662 821.878 640.976C821.252 645.289 818.94 649.178 815.45 651.79V651.79Z" stroke="#314E5D" stroke-width="9" stroke-miterlimit="10"/>
<path id="Vector_31" d="M780.81 614.51C784.315 619.524 788.196 624.264 792.42 628.69C794.47 630.95 796.56 633.21 798.42 635.69C799.48 637.1 800.92 638.47 799.96 640.43C799.38 641.61 796.96 642.69 795.89 643.31C790.89 646.31 795.45 654.07 800.43 651.08C807.78 646.67 812.58 640.64 807.2 632.54C801.82 624.44 794 618.12 788.58 610C785.39 605.19 777.58 609.7 780.81 614.54V614.51Z" fill="white"/>
<path id="Vector_32" d="M544.39 366.31V717.76C544.39 728.342 540.186 738.491 532.704 745.974C525.221 753.456 515.072 757.66 504.49 757.66H192.95C182.368 757.66 172.219 753.456 164.736 745.974C157.254 738.491 153.05 728.342 153.05 717.76V488.42C152.212 488.543 151.367 488.607 150.52 488.61C146.046 488.61 141.755 486.833 138.591 483.669C135.427 480.505 133.65 476.214 133.65 471.74C133.65 467.266 135.427 462.975 138.591 459.811C141.755 456.647 146.046 454.87 150.52 454.87C151.367 454.873 152.212 454.937 153.05 455.06V366.31H544.39Z" fill="#E8F0F9"/>
<path id="Vector_33" d="M550.94 331.73H138.05C131.423 331.73 126.05 337.103 126.05 343.73V351.78C126.05 358.407 131.423 363.78 138.05 363.78H550.94C557.567 363.78 562.94 358.407 562.94 351.78V343.73C562.94 337.103 557.567 331.73 550.94 331.73Z" fill="#B8F9F5"/>
<path id="Vector_34" d="M439.68 462.62C439.44 475.33 446.88 487.73 458.68 492.84C462.39 494.45 466.68 493.94 468.94 490.15C470.79 486.98 469.94 481.51 466.25 479.89C459.07 476.78 454.56 470.57 454.71 462.62C454.9 452.96 439.9 452.96 439.71 462.62H439.68Z" fill="#F2F0E7"/>
<path id="Vector_35" d="M405.59 368.85C404.73 393.85 403.86 419.05 406.91 443.96C407.91 452.26 408.51 466.04 418.1 469.68C426.23 472.77 432.1 464.68 434.1 457.76C438.25 443.41 435.54 427.76 437.82 413.14C438.43 409.2 439.67 404.86 443.13 402.86C446.28 401.04 450.42 401.86 453.43 403.86C459.69 408.08 461.66 416.45 461.58 424C461.32 448 460.79 472.06 460.53 496.11C460.44 504.67 461.47 515.11 469.25 518.67C476.01 521.77 484.25 517.16 487.84 510.67C491.43 504.18 491.46 496.34 491.44 488.91L491.13 365.51" fill="#FFE48D"/>
<path id="Vector_36" d="M313.8 302.2C333.898 302.2 350.19 285.908 350.19 265.81C350.19 245.712 333.898 229.42 313.8 229.42C293.702 229.42 277.41 245.712 277.41 265.81C277.41 285.908 293.702 302.2 313.8 302.2Z" fill="#FFE48D"/>
<path id="Vector_37" d="M313.8 229.42C306.18 229.409 298.751 231.803 292.57 236.26H293.33C301.033 236.255 308.54 238.695 314.767 243.23C320.995 247.764 325.622 254.158 327.983 261.491C330.344 268.823 330.316 276.716 327.904 284.032C325.492 291.348 320.819 297.71 314.56 302.2C319.337 302.15 324.058 301.16 328.453 299.285C332.848 297.411 336.83 294.689 340.173 291.276C343.516 287.862 346.154 283.824 347.936 279.391C349.718 274.958 350.61 270.217 350.56 265.44C350.51 260.662 349.52 255.942 347.645 251.547C345.771 247.152 343.049 243.17 339.636 239.827C336.222 236.484 332.184 233.846 327.751 232.064C323.318 230.282 318.577 229.39 313.8 229.44V229.42Z" fill="#F6C240"/>
<path id="Vector_38" d="M314.37 305.05C334.468 305.05 350.76 288.758 350.76 268.66C350.76 248.562 334.468 232.27 314.37 232.27C294.272 232.27 277.98 248.562 277.98 268.66C277.98 288.758 294.272 305.05 314.37 305.05Z" stroke="#314E5D" stroke-width="7" stroke-miterlimit="10"/>
<path id="Vector_39" d="M551.14 328.36H514C516.682 328.368 519.251 329.437 521.147 331.333C523.043 333.229 524.112 335.798 524.12 338.48V350.29C524.112 352.972 523.043 355.541 521.147 357.437C519.251 359.333 516.682 360.402 514 360.41H551.11C553.792 360.402 556.361 359.333 558.257 357.437C560.153 355.541 561.222 352.972 561.23 350.29V338.48C561.222 335.804 560.158 333.239 558.268 331.343C556.378 329.448 553.816 328.376 551.14 328.36Z" fill="#3CD8D6"/>
<path id="Vector_40" d="M176.66 352V340.17C176.655 337.48 177.718 334.897 179.615 332.991C181.513 331.084 184.09 330.008 186.78 330H137.86C135.178 330.008 132.609 331.077 130.713 332.973C128.817 334.869 127.748 337.438 127.74 340.12V352C127.748 354.682 128.817 357.251 130.713 359.147C132.609 361.043 135.178 362.112 137.86 362.12H186.78C184.098 362.112 181.529 361.043 179.633 359.147C177.737 357.251 176.668 354.682 176.66 352Z" fill="#42EFE2"/>
<path id="Vector_41" d="M181.72 714.38V485C180.882 485.123 180.037 485.187 179.19 485.19C174.716 485.19 170.425 483.413 167.261 480.249C164.097 477.085 162.32 472.794 162.32 468.32C162.32 463.846 164.097 459.555 167.261 456.391C170.425 453.227 174.716 451.45 179.19 451.45C180.037 451.453 180.882 451.517 181.72 451.64V362.94H149.67V451.69C148.832 451.567 147.987 451.503 147.14 451.5C142.666 451.5 138.375 453.277 135.211 456.441C132.047 459.605 130.27 463.896 130.27 468.37C130.27 472.844 132.047 477.135 135.211 480.299C138.375 483.463 142.666 485.24 147.14 485.24C147.987 485.237 148.832 485.173 149.67 485.05V714.38C149.67 724.962 153.874 735.111 161.356 742.594C168.839 750.076 178.988 754.28 189.57 754.28H221.62C211.038 754.28 200.889 750.076 193.406 742.594C185.924 735.111 181.72 724.962 181.72 714.38V714.38Z" fill="white"/>
<path id="Vector_42" d="M192.59 368.84V731.51C192.59 742.51 209.65 742.51 209.65 731.51V368.84C209.65 357.84 192.59 357.84 192.59 368.84Z" fill="white"/>
<path id="Vector_43" d="M132 471.74C132 495.29 132 518.84 131.85 542.38C131.59 579.1 151.57 613.84 184.77 630.52C214.11 645.26 250.06 644.15 279.41 630.04C307.09 616.74 323.93 582.6 323.93 552.75V473.48" stroke="#314E5D" stroke-width="8" stroke-miterlimit="10"/>
<path id="Vector_44" d="M503.91 368V719.45C503.91 730.032 499.706 740.181 492.224 747.664C484.741 755.146 474.592 759.35 464.01 759.35H501.12C511.702 759.35 521.851 755.146 529.334 747.664C536.816 740.181 541.02 730.032 541.02 719.45V368H503.91Z" fill="#BCD9EA"/>
<path id="Vector_45" d="M389.99 215.77C400.036 215.77 408.18 207.626 408.18 197.58C408.18 187.534 400.036 179.39 389.99 179.39C379.944 179.39 371.8 187.534 371.8 197.58C371.8 207.626 379.944 215.77 389.99 215.77Z" fill="#FFE48D"/>
<path id="Vector_46" d="M390 179.39C386.192 179.386 382.479 180.583 379.39 182.81H379.77C383.629 182.8 387.392 184.017 390.514 186.286C393.635 188.555 395.955 191.758 397.136 195.432C398.317 199.106 398.299 203.061 397.085 206.724C395.87 210.387 393.522 213.569 390.38 215.81C395.204 215.76 399.811 213.795 403.187 210.348C406.562 206.901 408.43 202.254 408.38 197.43C408.33 192.606 406.365 187.999 402.918 184.623C399.471 181.248 394.824 179.38 390 179.43V179.39Z" fill="#F6C240"/>
<path id="Vector_47" d="M384.88 222.03C398.698 222.03 409.9 210.828 409.9 197.01C409.9 183.192 398.698 171.99 384.88 171.99C371.062 171.99 359.86 183.192 359.86 197.01C359.86 210.828 371.062 222.03 384.88 222.03Z" stroke="#314E5D" stroke-width="7" stroke-miterlimit="10"/>
<path id="Vector_48" d="M335.166 138.066C335.392 126.76 326.411 117.412 315.105 117.186C303.8 116.96 294.452 125.942 294.226 137.247C294 148.552 302.981 157.9 314.287 158.126C325.592 158.352 334.94 149.371 335.166 138.066Z" fill="#FFE48D"/>
<path id="Vector_49" d="M314.16 116.85C309.877 116.771 305.678 118.045 302.16 120.49H302.59C306.92 120.567 311.114 122.014 314.569 124.625C318.024 127.236 320.562 130.876 321.818 135.02C323.074 139.165 322.983 143.601 321.559 147.691C320.134 151.78 317.449 155.313 313.89 157.78C319.244 157.704 324.355 155.533 328.127 151.733C331.9 147.933 334.033 142.806 334.069 137.452C334.106 132.098 332.043 126.942 328.323 123.091C324.603 119.24 319.522 116.999 314.17 116.85H314.16Z" fill="#F6C240"/>
<path id="Vector_50" d="M313.8 157.21C324.79 157.21 333.7 148.3 333.7 137.31C333.7 126.32 324.79 117.41 313.8 117.41C302.81 117.41 293.9 126.32 293.9 137.31C293.9 148.3 302.81 157.21 313.8 157.21Z" stroke="#314E5D" stroke-width="7" stroke-miterlimit="10"/>
<path id="Vector_51" d="M322.99 488.19C336.035 488.19 346.61 477.615 346.61 464.57C346.61 451.525 336.035 440.95 322.99 440.95C309.945 440.95 299.37 451.525 299.37 464.57C299.37 477.615 309.945 488.19 322.99 488.19Z" fill="#B8F9F5"/>
<path id="Vector_52" d="M324.68 486.5C337.725 486.5 348.3 475.925 348.3 462.88C348.3 449.835 337.725 439.26 324.68 439.26C311.635 439.26 301.06 449.835 301.06 462.88C301.06 475.925 311.635 486.5 324.68 486.5Z" stroke="#314E5D" stroke-width="14" stroke-miterlimit="10"/>
<path id="Vector_53" d="M542.28 364.2V715.65C542.28 726.232 538.076 736.381 530.594 743.864C523.111 751.346 512.962 755.55 502.38 755.55H190.84C180.258 755.55 170.109 751.346 162.626 743.864C155.144 736.381 150.94 726.232 150.94 715.65V486.31C150.102 486.433 149.257 486.497 148.41 486.5C143.936 486.5 139.645 484.723 136.481 481.559C133.317 478.395 131.54 474.104 131.54 469.63C131.54 465.156 133.317 460.865 136.481 457.701C139.645 454.537 143.936 452.76 148.41 452.76C149.257 452.763 150.102 452.827 150.94 452.95V364.2H542.28Z" stroke="#314E5D" stroke-width="8" stroke-miterlimit="10"/>
<path id="Vector_54" d="M550.52 331.31H137.63C131.003 331.31 125.63 336.683 125.63 343.31V351.36C125.63 357.987 131.003 363.36 137.63 363.36H550.52C557.147 363.36 562.52 357.987 562.52 351.36V343.31C562.52 336.683 557.147 331.31 550.52 331.31Z" stroke="#314E5D" stroke-width="8" stroke-miterlimit="10"/>
</g>
</g>
</g>
<defs>
<clipPath id="clip0">
<rect width="827.91" height="759.55" fill="white"/>
</clipPath>
</defs>
</svg>
