<svg width="1600" height="1200" viewBox="0 0 1600 1200" fill="none" xmlns="http://www.w3.org/2000/svg">
<g id="pixeltrue-yoga 1">
<g id="background">
<g id="Group">
<g id="Group_2">
<path id="Vector" d="M335.2 796.5C340 825.4 345.8 854 352.7 882.5C353.2 884.4 356 883.6 355.6 881.7C348.7 853.3 342.8 824.6 338.1 795.7C337.7 793.8 334.8 794.6 335.2 796.5Z" fill="#E8E8E8"/>
</g>
</g>
<g id="Group_3">
<g id="Group_4">
<path id="Vector_2" d="M432.1 800.5C426.7 826.1 422.1 852 418.4 877.9C418.1 879.8 421 880.6 421.3 878.7C425 852.7 429.6 826.9 435 801.3C435.4 799.4 432.5 798.6 432.1 800.5Z" fill="#E8E8E8"/>
</g>
</g>
<g id="Group_5">
<g id="Group_6">
<path id="Vector_3" d="M353.3 883.5C375.1 893.3 400.8 894.2 420.7 879.4C422.2 878.3 420.7 875.7 419.2 876.8C400.3 890.9 375.7 890.3 354.9 880.9C353.1 880.1 351.5 882.7 353.3 883.5Z" fill="#E8E8E8"/>
</g>
</g>
<g id="Group_7">
<g id="Group_8">
<path id="Vector_4" d="M336.1 796.2C343.5 799.6 351.2 800.3 359.2 800.8C368.2 801.3 377.2 801.6 386.2 801.7C402.8 802 420 802.8 435.7 796.3C437.5 795.6 436.7 792.7 434.9 793.4C420.1 799.6 403.9 799 388.2 798.8C379.8 798.7 371.5 798.4 363.1 798C354.4 797.6 345.6 797.4 337.6 793.7C335.8 792.8 334.3 795.4 336.1 796.2Z" fill="#E8E8E8"/>
</g>
</g>
<g id="Group_9">
<g id="Group_10">
<path id="Vector_5" d="M432.8 795.3C426.9 822.9 421.7 850.7 417.4 878.6C417.1 880.5 420 881.3 420.3 879.4C424.6 851.5 429.7 823.7 435.7 796.1C436.1 794.2 433.2 793.4 432.8 795.3Z" fill="#E8E8E8"/>
</g>
</g>
<g id="Group_11">
<g id="Group_12">
<path id="Vector_6" d="M344.5 843.1C351.1 858.7 359.5 873.5 369.6 887.1C370.7 888.6 373.3 887.1 372.2 885.6C362.1 871.9 353.7 857.2 347.1 841.6C346.3 839.8 343.8 841.4 344.5 843.1Z" fill="#E8E8E8"/>
</g>
</g>
<g id="Group_13">
<g id="Group_14">
<path id="Vector_7" d="M337.2 798.7C350.7 830.6 368 860.7 388.8 888.4C389.9 889.9 392.6 888.4 391.4 886.9C370.6 859.2 353.3 829.1 339.8 797.2C339.1 795.4 336.5 796.9 337.2 798.7Z" fill="#E8E8E8"/>
</g>
</g>
<g id="Group_15">
<g id="Group_16">
<path id="Vector_8" d="M360.3 800C372.2 829.7 387.4 857.8 405.8 883.9C406.9 885.5 409.5 884 408.4 882.4C390.1 856.5 374.9 828.6 363.2 799.2C362.5 797.5 359.6 798.2 360.3 800Z" fill="#E8E8E8"/>
</g>
</g>
<g id="Group_17">
<g id="Group_18">
<path id="Vector_9" d="M379.8 800.6C390.3 825.6 403.1 849.6 418 872.3C419.1 873.9 421.7 872.4 420.6 870.8C405.8 848.3 393.1 824.6 382.7 799.8C382 798.1 379.1 798.9 379.8 800.6Z" fill="#E8E8E8"/>
</g>
</g>
<g id="Group_19">
<g id="Group_20">
<path id="Vector_10" d="M398.2 802.8C404.6 818.7 412.4 833.9 421.6 848.4C422.6 850 425.2 848.5 424.2 846.9C415.1 832.7 407.4 817.7 401.1 802.1C400.4 800.2 397.5 801 398.2 802.8Z" fill="#E8E8E8"/>
</g>
</g>
<g id="Group_21">
<g id="Group_22">
<path id="Vector_11" d="M413.6 801.4C417.3 810.1 421.5 818.5 426.3 826.6C427.3 828.3 429.9 826.8 428.9 825.1C424.1 817 419.9 808.6 416.2 799.9C415.5 798.1 412.9 799.6 413.6 801.4Z" fill="#E8E8E8"/>
</g>
</g>
<g id="Group_23">
<g id="Group_24">
<path id="Vector_12" d="M425.8 799C427.2 802.3 428.8 805.5 430.8 808.5C431.9 810.1 434.5 808.6 433.4 807C431.6 804.2 430 801.3 428.7 798.2C427.9 796.4 425 797.2 425.8 799Z" fill="#E8E8E8"/>
</g>
</g>
<g id="Group_25">
<g id="Group_26">
<path id="Vector_13" d="M376.8 798.1C375.3 788.2 374.9 778.2 375.4 768.1C374.8 768.6 374.1 769.1 373.5 769.5C375.6 770.3 379.5 772.7 381.8 771.6C383.8 770.6 383.4 767.6 383.5 765.7C383.9 760.2 384.5 755.3 387.4 750.5C389.9 746.4 393.2 742.8 396.2 739C408.2 724 419.2 708.2 429.3 691.8C428.4 691.8 427.6 691.8 426.7 691.8C431.7 700.5 433.4 712.1 434.5 722C435.6 731.8 435.2 741.7 432.5 751.2C430 760 425.9 768.2 421 775.9C416.1 783.4 410.3 791.8 403.2 797.4C401.7 798.6 403.8 800.7 405.3 799.5C412.8 793.6 419 784.7 424.1 776.7C429.3 768.6 433.5 759.8 435.9 750.5C438.5 740.6 438.7 730.3 437.4 720.2C436.1 710.3 434.4 699.1 429.4 690.4C428.8 689.4 427.4 689.5 426.8 690.4C417.2 706 406.8 721.1 395.4 735.5C390.9 741.2 385.2 746.8 382.6 753.7C381.4 756.8 381 760 380.8 763.3C380.7 764.2 381.1 768.3 380.3 768.8C379.7 769.2 375.2 767 374.4 766.7C373.4 766.4 372.6 767.2 372.5 768.1C371.9 778.4 372.5 788.6 374 798.8C374.2 800.8 377.1 800 376.8 798.1Z" fill="#E8E8E8"/>
</g>
</g>
<g id="Group_27">
<g id="Group_28">
<path id="Vector_14" d="M315.5 700.8C318.4 719 322.9 737 329 754.4C334.5 770 340.9 784.7 352 797.1C353.3 798.5 355.4 796.4 354.1 795C342.5 782.1 336.1 766.3 330.6 750C325.1 733.7 321 716.9 318.3 699.9C318.1 698.1 315.2 698.9 315.5 700.8Z" fill="#E8E8E8"/>
</g>
</g>
<g id="Group_29">
<g id="Group_30">
<path id="Vector_15" d="M315.8 698.9C321.7 704.4 329 707.4 336.9 708.5C339.8 708.9 348.7 707.9 349.9 710.9C350.5 712.4 349.3 716.5 349.1 718.2C348.8 721.2 348.5 724.3 348.1 727.3C348 728.4 349.1 728.9 350 728.7C353.5 728.2 357 727.7 360.5 727.2C365.1 726.6 367.2 729.8 370.4 732.7C375.9 737.8 381.3 743 386.8 748.1C388.2 749.4 390.3 747.3 388.9 746C381.9 739.4 375.1 731.9 367.5 725.9C362.6 722 355 725 349.2 725.8C349.8 726.3 350.5 726.8 351.1 727.2C351.7 721.8 353.5 715.2 352.9 709.8C352.6 707.2 350.8 706.4 348.4 706.2C337.1 705.3 326.7 705.1 317.8 696.8C316.5 695.4 314.3 697.5 315.8 698.9Z" fill="#E8E8E8"/>
</g>
</g>
<g id="Group_31">
<g id="Group_32">
<path id="Vector_16" d="M316 697.3C317.7 734.3 334.6 767.8 353.3 799C354.3 800.7 356.9 799.1 355.9 797.5C337.5 766.7 320.7 733.8 319 697.3C318.9 695.3 315.9 695.3 316 697.3Z" fill="#E8E8E8"/>
</g>
</g>
<g id="Group_33">
<g id="Group_34">
<path id="Vector_17" d="M337.4 795.4C342.1 795.6 346.7 795.5 351.4 795C353.3 794.8 353.3 791.8 351.4 792C346.7 792.5 342.1 792.6 337.4 792.4C335.4 792.3 335.4 795.3 337.4 795.4Z" fill="#E8E8E8"/>
</g>
</g>
<g id="Group_35">
<g id="Group_36">
<path id="Vector_18" d="M341 796.7C345 796.6 348.9 797.3 352.6 798.8C354.4 799.5 355.9 797 354.1 796.2C349.9 794.4 345.6 793.5 341 793.6C339.1 793.8 339.1 796.8 341 796.7Z" fill="#E8E8E8"/>
</g>
</g>
<g id="Group_37">
<g id="Group_38">
<path id="Vector_19" d="M403.4 800.8C413.3 796.7 423.6 795.1 434.3 796.2C436.2 796.4 436.2 793.4 434.3 793.2C423.4 792.2 412.7 793.7 402.6 798C400.9 798.6 401.6 801.5 403.4 800.8Z" fill="#E8E8E8"/>
</g>
</g>
<g id="Group_39">
<g id="Group_40">
<path id="Vector_20" d="M410 799.6C416.2 797.1 423 798.3 429.4 797.2C431.3 796.9 430.5 794 428.6 794.3C422.1 795.4 415.4 794.1 409.2 796.7C407.5 797.5 408.3 800.4 410 799.6Z" fill="#E8E8E8"/>
</g>
</g>
<g id="Group_41">
<g id="Group_42">
<path id="Vector_21" d="M410.8 795.4C418.4 796.2 426 796.3 433.7 795.7C435.6 795.6 435.6 792.6 433.7 792.7C426 793.2 418.4 793.1 410.8 792.4C408.9 792.2 408.9 795.2 410.8 795.4Z" fill="#E8E8E8"/>
</g>
</g>
<g id="Group_43">
<g id="Group_44">
<path id="Vector_22" d="M427.8 699.2C420.5 735.3 392.1 762.7 384.4 798.7C384.1 800.1 386.3 800.7 386.6 799.3C394.3 763.3 422.7 735.9 430 699.8C430.3 698.4 428.1 697.8 427.8 699.2Z" fill="#E8E8E8"/>
</g>
</g>
<g id="Group_45">
<g id="Group_46">
<path id="Vector_23" d="M315.3 696.8C317.8 721.2 324.7 744.7 335.9 766.5C336.6 767.8 338.5 766.7 337.8 765.4C326.9 744 320 720.8 317.6 696.8C317.4 695.4 315.1 695.3 315.3 696.8Z" fill="#E8E8E8"/>
</g>
</g>
<g id="Group_47">
<g id="Group_48">
<path id="Vector_24" d="M317.2 697.5C325.1 703.7 334.1 707.7 344.1 709.2C345.5 709.4 346.1 707.2 344.7 707C335.2 705.6 326.4 701.9 318.8 695.9C317.6 695 316 696.6 317.2 697.5Z" fill="#E8E8E8"/>
</g>
</g>
<g id="Group_49">
<g id="Group_50">
<path id="Vector_25" d="M393.1 740.9C395.8 749.7 397 758.6 396.6 767.7C396.5 769.1 398.8 769.1 398.9 767.7C399.2 758.3 398 749.2 395.3 740.3C394.9 738.9 392.7 739.5 393.1 740.9Z" fill="#E8E8E8"/>
</g>
</g>
<g id="Group_51">
<g id="Group_52">
<path id="Vector_26" d="M426.9 694.1C428.1 698.1 427.8 702.2 425.9 706C425.2 707.3 427.2 708.4 427.8 707.1C430 702.8 430.4 698.1 429 693.5C428.7 692.1 426.5 692.7 426.9 694.1Z" fill="#E8E8E8"/>
</g>
</g>
<g id="Group_53">
<g id="Group_54">
<path id="Vector_27" d="M408.6 748.4C418.7 740.7 428.8 733 436.8 722.9C437.7 721.8 436.1 720.2 435.2 721.3C427.4 731.2 417.5 738.9 407.5 746.4C406.4 747.3 407.5 749.3 408.6 748.4Z" fill="#E8E8E8"/>
</g>
</g>
<g id="Group_55">
<g id="Group_56">
<path id="Vector_28" d="M317.8 701.4C326.2 716.5 335.4 731 345.5 745C355 758.2 367.1 770.5 372.3 786.1C372.8 787.5 374.9 786.9 374.5 785.5C369.3 770.2 357.9 758.2 348.5 745.3C338 730.9 328.4 715.8 319.7 700.2C319.1 699 317.1 700.2 317.8 701.4Z" fill="#E8E8E8"/>
</g>
</g>
<g id="Group_57">
<g id="Group_58">
<path id="Vector_29" d="M339.1 707.7C338.5 717.9 339.4 728 341.7 737.9C342 739.3 344.2 738.7 343.9 737.3C341.6 727.5 340.8 717.7 341.4 707.7C341.5 706.2 339.2 706.2 339.1 707.7Z" fill="#E8E8E8"/>
</g>
</g>
<g id="Group_59">
<g id="Group_60">
<path id="Vector_30" d="M369.4 733C366.4 744.5 364.6 756.1 363.9 767.9C363.8 769.3 366.1 769.3 366.2 767.9C366.9 756.3 368.7 744.8 371.6 733.6C372 732.2 369.8 731.6 369.4 733Z" fill="#E8E8E8"/>
</g>
</g>
<g id="Group_61">
<g id="Group_62">
<path id="Vector_31" d="M339.8 774.6C343.7 777.3 350 777.9 354.6 778.5C359.5 779.2 364.2 779.1 368.9 778C370.3 777.7 369.7 775.5 368.3 775.8C363.2 776.9 358.4 776.8 353.3 776C349.5 775.4 344 774.8 340.9 772.6C339.7 771.9 338.6 773.8 339.8 774.6Z" fill="#E8E8E8"/>
</g>
</g>
<g id="Group_63">
<g id="Group_64">
<path id="Vector_32" d="M1247.9 878.2C1302.7 878.2 1357.4 878.2 1412.2 878.2C1413.6 878.2 1413.7 875.9 1412.2 875.9C1357.4 875.9 1302.7 875.9 1247.9 875.9C1246.4 875.9 1246.4 878.2 1247.9 878.2Z" fill="#E8E8E8"/>
</g>
</g>
<g id="Group_65">
<g id="Group_66">
<path id="Vector_33" d="M1292.3 875C1289.4 875.9 1283.4 845.5 1283.1 842.7C1281.8 831.7 1282.1 820.5 1283.9 809.5C1283.2 809.5 1282.5 809.5 1281.7 809.5C1283.7 815.1 1287 819.4 1291.8 822.9C1293 823.7 1294.1 821.8 1292.9 821C1288.6 817.9 1285.6 813.9 1283.8 809C1283.5 808.1 1281.8 807.8 1281.6 809C1279.4 822.3 1279.4 835.9 1281.7 849.2C1282.9 856.2 1284.7 863 1287.2 869.7C1288 871.9 1289.3 878.5 1292.9 877.3C1294.3 876.7 1293.7 874.5 1292.3 875Z" fill="#E8E8E8"/>
</g>
</g>
<g id="Group_67">
<g id="Group_68">
<path id="Vector_34" d="M1293.5 820.6C1291.2 809.1 1295 798 1299.8 787.6C1304.1 778.3 1309 769.4 1314 760.5C1323.7 743.2 1333.7 725.9 1340.8 707.3C1340.1 707.3 1339.4 707.3 1338.6 707.3C1344.4 724.6 1348.2 742.4 1349.7 760.6C1350.4 769.5 1350.5 778.5 1350.3 787.4C1350.2 791.8 1350.6 796.7 1349.7 801C1348.7 806.1 1344.8 808.8 1340.7 811.4C1339.9 811.9 1340 812.8 1340.7 813.3C1342 814.3 1343.1 814.5 1344.8 814.6C1345.7 814.6 1346.9 814.3 1347.8 814.5C1352.3 815.6 1351.6 819.1 1351.3 821.9C1350.6 828.6 1349.3 835.3 1347.5 841.8C1343.9 854.4 1338.3 866.3 1330.9 877.1C1330.1 878.3 1332 879.4 1332.8 878.2C1341.6 865.3 1347.9 850.9 1351.3 835.7C1352.1 832.3 1352.7 828.8 1353.1 825.3C1353.5 822.4 1354.4 818.8 1353.4 815.9C1351.3 810 1345.6 814.3 1341.8 811.4C1341.8 812 1341.8 812.7 1341.8 813.3C1347.5 809.6 1351.7 805.9 1352.1 798.8C1352.7 787.9 1352.8 776.9 1352.2 766.1C1351.1 745.8 1347.2 725.8 1340.7 706.6C1340.3 705.5 1338.9 705.6 1338.5 706.6C1330.7 727.3 1319.1 746.3 1308.4 765.6C1299.3 782.1 1287.3 801.4 1291.2 821.1C1291.6 822.6 1293.8 822 1293.5 820.6Z" fill="#E8E8E8"/>
</g>
</g>
<g id="Group_69">
<g id="Group_70">
<path id="Vector_35" d="M1353.1 770C1355.8 764.7 1358.5 759.4 1361.2 754C1362.5 751.5 1363.8 749 1365 746.4C1365.6 745.3 1366.1 744.2 1366.7 743C1367.1 742.2 1367.5 741.4 1367.9 740.7C1368.7 738.8 1370.4 738.3 1373.1 739.1C1373.1 740 1374.4 740.7 1375 739.9C1388.4 724.2 1399.9 707.1 1409.5 688.8C1408.8 688.6 1408.1 688.4 1407.4 688.2C1407.1 702.4 1406.9 716.7 1407.6 730.9C1407.9 737.4 1408.5 744 1409.4 750.5C1409.8 753.5 1411 757 1410.9 760.1C1411.7 762 1411.2 763.6 1409.3 764.8C1408.7 766.8 1407.4 768 1405.5 768.3C1403.8 769.1 1401.7 769.5 1399.9 769.9C1398.8 770.2 1398.8 771.8 1399.9 772.1C1408.9 774.4 1405.8 785.8 1404.5 792.2C1403.8 795.7 1403.6 799.6 1399.1 799.9C1397.3 800 1396.2 799.4 1394.4 799.9C1393.6 800.1 1393.4 800.9 1393.7 801.6C1394.5 803.5 1395.8 803.5 1397.1 804.8C1400.4 808 1398 814.8 1397.1 818.5C1395.5 825.4 1393.4 832.1 1390.8 838.7C1385.6 852.1 1378.5 864.5 1369.8 875.9C1368.9 877.1 1370.9 878.2 1371.7 877C1381.2 864.5 1388.8 850.8 1394.1 836C1396.8 828.6 1398.9 820.9 1400.4 813.2C1400.8 811 1402 807.6 1401 805.4C1399.9 802.9 1396.6 802.8 1395.5 800.3C1395.3 800.9 1395.1 801.4 1394.8 802C1397.8 801.2 1401.7 803.8 1404.2 801.1C1406.8 798.4 1406.7 791.7 1407.4 788.2C1408.7 781.2 1408.7 772 1400.3 769.9C1400.3 770.6 1400.3 771.3 1400.3 772.1C1404.6 770.9 1413.1 770 1413.6 764.3C1413.8 761.5 1412.7 758.4 1412.2 755.7C1411.4 750.7 1410.8 745.7 1410.3 740.6C1408.8 723.2 1409.1 705.7 1409.4 688.2C1409.4 687.1 1407.8 686.6 1407.3 687.6C1397.9 705.7 1386.4 722.7 1373.2 738.2C1373.8 738.5 1374.5 738.7 1375.1 739C1374.9 732.9 1368.2 735.3 1366 738.8C1360.1 748.1 1355.8 758.9 1350.8 768.7C1350.5 770.1 1352.4 771.3 1353.1 770Z" fill="#E8E8E8"/>
</g>
</g>
<g id="Group_71">
<g id="Group_72">
<path id="Vector_36" d="M1406 692.4C1395.7 756.8 1364.5 815 1344.4 876.6C1344 878 1346.1 878.6 1346.6 877.2C1366.6 815.7 1397.9 757.5 1408.2 693C1408.4 691.6 1406.3 691 1406 692.4Z" fill="#E8E8E8"/>
</g>
</g>
<g id="Group_73">
<g id="Group_74">
<path id="Vector_37" d="M1362.1 747C1363 768.6 1365.2 790.1 1368.4 811.5C1368.6 812.9 1370.8 812.3 1370.6 810.9C1367.4 789.7 1365.3 768.4 1364.4 747C1364.3 745.5 1362 745.5 1362.1 747Z" fill="#E8E8E8"/>
</g>
</g>
<g id="Group_75">
<g id="Group_76">
<path id="Vector_38" d="M1385.6 774.3C1392.7 763.1 1402.7 754.3 1411 744.1C1411.9 743 1410.3 741.4 1409.4 742.5C1401 752.9 1390.9 761.8 1383.7 773.2C1382.8 774.4 1384.8 775.5 1385.6 774.3Z" fill="#E8E8E8"/>
</g>
</g>
<g id="Group_77">
<g id="Group_78">
<path id="Vector_39" d="M1337.8 711.1C1337.1 767.6 1307.3 819.9 1311.1 876.8C1311.2 878.2 1313.4 878.2 1313.4 876.8C1309.6 819.9 1339.4 767.6 1340.1 711.1C1340.1 709.6 1337.8 709.6 1337.8 711.1Z" fill="#E8E8E8"/>
</g>
</g>
<g id="Group_79">
<g id="Group_80">
<path id="Vector_40" d="M1299.5 783.5C1302.6 800.4 1307.4 816.9 1313.8 832.8C1314.3 834.1 1316.5 833.5 1316 832.2C1309.6 816.3 1304.8 799.8 1301.7 782.9C1301.4 781.4 1299.3 782 1299.5 783.5Z" fill="#E8E8E8"/>
</g>
</g>
<g id="Group_81">
<g id="Group_82">
<path id="Vector_41" d="M1323.9 796.5C1333.8 785.2 1345.3 773.2 1351.5 759.4C1352.1 758.1 1350.2 756.9 1349.6 758.3C1343.4 771.9 1332.1 783.8 1322.3 794.9C1321.4 796 1323 797.6 1323.9 796.5Z" fill="#E8E8E8"/>
</g>
</g>
<g id="Group_83">
<g id="Group_84">
<path id="Vector_42" d="M1324 738.5C1325.5 747.5 1327.6 756.4 1330 765.2C1330.4 766.6 1332.6 766 1332.2 764.6C1329.7 755.8 1327.7 746.9 1326.2 737.9C1325.9 736.5 1323.8 737.1 1324 738.5Z" fill="#E8E8E8"/>
</g>
</g>
<g id="Group_85">
<g id="Group_86">
<path id="Vector_43" d="M1350.1 866.5C1358.9 860.9 1367.9 855.5 1376.5 849.5C1383.4 844.7 1391.1 839.5 1395.4 832.2C1396.1 830.9 1394.2 829.8 1393.5 831.1C1388.9 839 1379.9 844.6 1372.5 849.6C1364.8 854.8 1356.9 859.6 1349.1 864.6C1347.7 865.3 1348.9 867.3 1350.1 866.5Z" fill="#E8E8E8"/>
</g>
</g>
<g id="Group_87">
<g id="Group_88">
<path id="Vector_44" d="M309.2 883.2C326.7 883.2 344.2 883.2 361.7 883.2C363.1 883.2 363.2 880.9 361.7 880.9C344.2 880.9 326.7 880.9 309.2 880.9C307.7 881 307.7 883.2 309.2 883.2Z" fill="#E8E8E8"/>
</g>
</g>
<g id="Group_89">
<g id="Group_90">
<path id="Vector_45" d="M417.9 884C431.5 884 445 884 458.6 884C460 884 460.1 881.7 458.6 881.7C445 881.7 431.5 881.7 417.9 881.7C416.5 881.7 416.5 884 417.9 884Z" fill="#E8E8E8"/>
</g>
</g>
<g id="Group_91">
<g id="Group_92">
<path id="Vector_46" d="M829.5 223.8C829.5 294.1 829.5 364.4 829.5 434.7C829.5 454.6 829.5 474.5 829.5 494.4C829.5 495.8 831.8 495.9 831.8 494.4C831.8 424.1 831.8 353.8 831.8 283.5C831.8 263.6 831.8 243.7 831.8 223.8C831.7 222.4 829.5 222.4 829.5 223.8Z" fill="#E8E8E8"/>
</g>
</g>
<g id="Group_93">
<g id="Group_94">
<path id="Vector_47" d="M830.8 224.9C904.9 224.9 979 224.9 1053.2 224.9C1074.1 224.9 1095.1 224.9 1116 224.9C1117.4 224.9 1117.5 222.6 1116 222.6C1041.9 222.6 967.8 222.6 893.6 222.6C872.7 222.6 851.7 222.6 830.8 222.6C829.4 222.7 829.4 224.9 830.8 224.9Z" fill="#E8E8E8"/>
</g>
</g>
<g id="Group_95">
<g id="Group_96">
<path id="Vector_48" d="M831.5 497.2C904.6 497.2 977.7 497.2 1050.8 497.2C1071.4 497.2 1092 497.2 1112.6 497.2C1114 497.2 1114.1 494.9 1112.6 494.9C1039.5 494.9 966.4 494.9 893.3 494.9C872.7 494.9 852.1 494.9 831.5 494.9C830.1 495 830.1 497.2 831.5 497.2Z" fill="#E8E8E8"/>
</g>
</g>
<g id="Group_97">
<g id="Group_98">
<path id="Vector_49" d="M1114.9 224.5C1114.9 294.4 1114.9 364.3 1114.9 434.1C1114.9 454.1 1114.9 474 1114.9 494C1114.9 495.4 1117.2 495.5 1117.2 494C1117.2 424.1 1117.2 354.2 1117.2 284.4C1117.2 264.4 1117.2 244.5 1117.2 224.5C1117.2 223.1 1114.9 223 1114.9 224.5Z" fill="#E8E8E8"/>
</g>
</g>
<g id="Group_99">
<g id="Group_100">
<path id="Vector_50" d="M1112.1 497.2C1113.8 497.3 1115.6 496.6 1116.7 495.3C1117.6 494.2 1116.1 492.6 1115.1 493.7C1114.3 494.6 1113.3 495 1112.1 494.9C1110.7 494.9 1110.7 497.1 1112.1 497.2Z" fill="#E8E8E8"/>
</g>
</g>
<g id="Group_101">
<g id="Group_102">
<path id="Vector_51" d="M830.4 380.5C903.8 380.5 977.2 380.5 1050.6 380.5C1071.5 380.5 1092.5 380.5 1113.4 380.5C1114.8 380.5 1114.9 378.2 1113.4 378.2C1040 378.2 966.6 378.2 893.2 378.2C872.3 378.2 851.3 378.2 830.4 378.2C829 378.3 829 380.5 830.4 380.5Z" fill="#E8E8E8"/>
</g>
</g>
<g id="Group_103">
<g id="Group_104">
<path id="Vector_52" d="M845.2 351.4C927.6 351.4 1010 351.4 1092.3 351.4C1093.7 351.4 1093.8 349.1 1092.3 349.1C1009.9 349.1 927.5 349.1 845.2 349.1C843.7 349.2 843.7 351.4 845.2 351.4Z" fill="#E8E8E8"/>
</g>
</g>
<g id="Group_105">
<g id="Group_106">
<path id="Vector_53" d="M844.6 319.1C924.5 319.1 1004.4 319.1 1084.3 319.1C1085.7 319.1 1085.8 316.8 1084.3 316.8C1004.4 316.8 924.5 316.8 844.6 316.8C843.2 316.8 843.2 319.1 844.6 319.1Z" fill="#E8E8E8"/>
</g>
</g>
<g id="Group_107">
<g id="Group_108">
<path id="Vector_54" d="M859.5 283.5C929.7 283.5 999.9 283.5 1070 283.5C1071.4 283.5 1071.5 281.2 1070 281.2C999.8 281.2 929.6 281.2 859.5 281.2C858 281.3 858 283.5 859.5 283.5Z" fill="#E8E8E8"/>
</g>
</g>
<g id="Group_109">
<g id="Group_110">
<path id="Vector_55" d="M881.2 244.8C945.5 244.8 1009.9 244.8 1074.2 244.8C1075.6 244.8 1075.7 242.5 1074.2 242.5C1009.9 242.5 945.5 242.5 881.2 242.5C879.8 242.6 879.8 244.8 881.2 244.8Z" fill="#E8E8E8"/>
</g>
</g>
<g id="Group_111">
<g id="Group_112">
<path id="Vector_56" d="M836.1 380.5C836.1 415.7 836.1 450.9 836.1 486C836.1 487.4 838.4 487.5 838.4 486C838.4 450.8 838.4 415.6 838.4 380.5C838.3 379.1 836.1 379.1 836.1 380.5Z" fill="#E8E8E8"/>
</g>
</g>
<g id="Group_113">
<g id="Group_114">
<path id="Vector_57" d="M837.2 488.3C907 488.3 976.9 488.3 1046.7 488.3C1066.7 488.3 1086.6 488.3 1106.6 488.3C1108 488.3 1108.1 486 1106.6 486C1036.8 486 966.9 486 897.1 486C877.1 486 857.2 486 837.2 486C835.8 486 835.8 488.3 837.2 488.3Z" fill="#E8E8E8"/>
</g>
</g>
<g id="Group_115">
<g id="Group_116">
<path id="Vector_58" d="M1107.1 382.6C1107.1 417.1 1107.1 451.5 1107.1 486C1107.1 487.4 1109.4 487.5 1109.4 486C1109.4 451.5 1109.4 417.1 1109.4 382.6C1109.3 381.2 1107.1 381.2 1107.1 382.6Z" fill="#E8E8E8"/>
</g>
</g>
<g id="Group_117">
<g id="Group_118">
<path id="Vector_59" d="M838.5 447.3C838.1 440.3 844.7 435.9 851 439.5C851.5 439.8 852.2 439.6 852.5 439.1C854.2 436.1 854 433.3 854.4 430C854.8 427.1 855.8 424.4 859.1 424C860.7 423.8 862.3 424.6 863.9 424.3C866.2 423.8 867.1 422.4 868.2 420.4C870.2 416.5 871.4 413 875 410.2C883.9 403 893.9 410.4 897.1 419.6C900.1 428.4 897.9 438.4 897.8 447.5C897.8 448.3 898.5 448.7 899.2 448.6C913.4 445.7 920.9 464.4 908.5 472.1C907.7 472.6 907.8 473.9 908.8 474.2C913.9 475.8 920.7 480.3 916.7 486.6C915.9 487.8 917.9 489 918.6 487.7C923.4 480.2 916 474.1 909.4 472C909.5 472.7 909.6 473.4 909.7 474.1C915.9 470.2 919.1 462.4 916.3 455.4C913.5 448.4 905.7 445 898.6 446.5C899.1 446.9 899.5 447.2 900 447.6C900.1 437.3 902.8 425.9 898 416.2C894.8 409.6 888.1 403.9 880.3 405.3C876.8 405.9 873.7 408 871.3 410.6C868.3 413.8 866.6 421.7 862.1 422.3C858.5 422.8 856.2 421.2 853.8 424.8C851.1 428.8 852.8 434 850.5 438.2C851 438.1 851.5 437.9 852 437.8C844.4 433.5 835.6 438.7 836.1 447.6C836.3 448.8 838.6 448.8 838.5 447.3Z" fill="#E8E8E8"/>
</g>
</g>
<g id="Group_119">
<g id="Group_120">
<path id="Vector_60" d="M963.4 379.5C963.4 415.2 963.4 450.9 963.4 486.6C963.4 488 965.7 488.1 965.7 486.6C965.7 450.9 965.7 415.2 965.7 379.5C965.6 378 963.4 378 963.4 379.5Z" fill="#E8E8E8"/>
</g>
</g>
<g id="Group_121">
<g id="Group_122">
<path id="Vector_61" d="M970.3 380C970.3 415.5 970.3 451.1 970.3 486.6C970.3 488 972.6 488.1 972.6 486.6C972.6 451.1 972.6 415.5 972.6 380C972.5 378.6 970.3 378.5 970.3 380Z" fill="#E8E8E8"/>
</g>
</g>
<g id="Group_123">
<g id="Group_124">
<path id="Vector_62" d="M1038.4 486.1C1036.3 484.4 1033.9 482.4 1033.2 479.6C1031.9 474.1 1035.7 473.4 1038.8 471.4C1040.6 470.2 1042.4 468.8 1042.8 466.6C1043.3 464.1 1041.6 462.2 1040.5 460.1C1037.9 454.8 1037.2 447.7 1042.2 443.4C1046.7 439.5 1057.2 444 1059.7 437.1C1060.4 435 1059.5 433.5 1058.7 431.7C1056.5 426.5 1054.9 421.4 1055.4 415.7C1055.7 411.6 1056.3 409.8 1061 409.2C1063 408.9 1062.5 409.7 1064.2 408.5C1064.7 408.1 1065 407.4 1065.4 407C1068 404.4 1069.1 401.8 1073.3 401.7C1084.4 401.5 1084.3 416.4 1084.8 423.9C1085.1 427.7 1085.5 437.4 1091 437.8C1093.3 438 1093.8 436.2 1094.8 434.6C1097.8 430.1 1101.2 427.3 1106.9 427.7C1108.3 427.8 1108.3 425.6 1106.9 425.4C1102 425 1097.1 427 1094.2 431.1C1094.3 431 1093 433.4 1092.9 433.4C1091.7 433.8 1088.6 431.7 1088.1 430.9C1087 429 1087.2 425.9 1087 423.8C1086.8 420.5 1086.8 417.1 1086.3 413.8C1085.5 408.7 1083.2 403.1 1078.4 400.6C1074.2 398.4 1068.9 399.3 1065.6 402.7C1064.8 403.6 1064.3 405.1 1063.4 405.8C1062 406.8 1059.7 406.1 1058.1 406.6C1056.2 407.2 1055.1 408.4 1054.2 410.2C1051.6 415.6 1052.8 423.2 1054.8 428.6C1055.2 429.8 1056.4 431.5 1056.6 432.8C1056.4 433.7 1056.2 434.6 1056 435.5C1056.3 438.3 1055 439.4 1052 439C1051.2 439.1 1050.4 439 1049.7 439C1046.8 439 1044.2 439.2 1041.7 440.9C1037.3 443.9 1035.5 449.4 1036.2 454.5C1036.7 458.2 1038.7 460.5 1039.8 463.9C1041.6 469.3 1035.1 470 1032.3 473.2C1027.8 478.3 1032.3 484.5 1036.5 488C1037.9 488.6 1039.5 487 1038.4 486.1Z" fill="#E8E8E8"/>
</g>
</g>
<g id="Group_125">
<g id="Group_126">
<path id="Vector_63" d="M432.5 373.8C432.5 370.4 432.5 367.1 432.5 363.7C432.5 362.3 430.2 362.2 430.2 363.7C430.2 367.1 430.2 370.4 430.2 373.8C430.2 375.3 432.5 375.3 432.5 373.8Z" fill="#E8E8E8"/>
</g>
</g>
<g id="Group_127">
<g id="Group_128">
<path id="Vector_64" d="M431.3 363.8C484 363.8 536.7 363.8 589.4 363.8C590.8 363.8 590.9 361.5 589.4 361.5C536.7 361.5 484 361.5 431.3 361.5C429.9 361.5 429.9 363.8 431.3 363.8Z" fill="#E8E8E8"/>
</g>
</g>
<g id="Group_129">
<g id="Group_130">
<path id="Vector_65" d="M434.7 375.5C486.3 375.5 537.9 375.5 589.5 375.5C590.9 375.5 591 373.2 589.5 373.2C537.9 373.2 486.3 373.2 434.7 373.2C433.2 373.2 433.2 375.5 434.7 375.5Z" fill="#E8E8E8"/>
</g>
</g>
<g id="Group_131">
<g id="Group_132">
<path id="Vector_66" d="M589.4 363.2C589.4 366.7 589.4 370.3 589.4 373.8C589.4 375.2 591.7 375.3 591.7 373.8C591.7 370.3 591.7 366.7 591.7 363.2C591.7 361.7 589.4 361.7 589.4 363.2Z" fill="#E8E8E8"/>
</g>
</g>
<g id="Group_133">
<g id="Group_134">
<path id="Vector_67" d="M443.2 362.3C443.2 322.2 443.2 282.1 443.2 242C443.2 240.6 440.9 240.5 440.9 242C440.9 282.1 440.9 322.2 440.9 362.3C440.9 363.8 443.2 363.8 443.2 362.3Z" fill="#E8E8E8"/>
</g>
</g>
<g id="Group_135">
<g id="Group_136">
<path id="Vector_68" d="M442.9 243.2C450.9 243.2 458.8 243.2 466.8 243.2C468.2 243.2 468.3 240.9 466.8 240.9C458.8 240.9 450.9 240.9 442.9 240.9C441.5 240.9 441.5 243.2 442.9 243.2Z" fill="#E8E8E8"/>
</g>
</g>
<g id="Group_137">
<g id="Group_138">
<path id="Vector_69" d="M464.8 243.7C464.8 283.1 464.8 322.5 464.8 361.9C464.8 363.3 467.1 363.4 467.1 361.9C467.1 322.5 467.1 283.1 467.1 243.7C467.1 242.3 464.8 242.3 464.8 243.7Z" fill="#E8E8E8"/>
</g>
</g>
<g id="Group_139">
<g id="Group_140">
<path id="Vector_70" d="M466.4 265.4C475.3 265.4 484.3 265.4 493.2 265.4C494.6 265.4 494.7 263.1 493.2 263.1C484.3 263.1 475.3 263.1 466.4 263.1C464.9 263.1 464.9 265.4 466.4 265.4Z" fill="#E8E8E8"/>
</g>
</g>
<g id="Group_141">
<g id="Group_142">
<path id="Vector_71" d="M491.2 264.7C491.2 296.4 491.2 328.1 491.2 359.8C491.2 361.2 493.5 361.3 493.5 359.8C493.5 328.1 493.5 296.4 493.5 264.7C493.5 263.2 491.2 263.2 491.2 264.7Z" fill="#E8E8E8"/>
</g>
</g>
<g id="Group_143">
<g id="Group_144">
<path id="Vector_72" d="M449.6 256.2C450.1 259.6 450.2 263 449.8 266.4C449.6 267.8 451.9 267.8 452.1 266.4C452.5 262.8 452.4 259.2 451.8 255.6C451.6 254.2 449.4 254.8 449.6 256.2Z" fill="#E8E8E8"/>
</g>
</g>
<g id="Group_145">
<g id="Group_146">
<path id="Vector_73" d="M454.3 255.8C455 259.3 455.2 262.8 455.2 266.4C455.2 267.8 457.4 267.8 457.5 266.4C457.6 262.6 457.2 258.9 456.5 255.2C456.2 253.8 454.1 254.4 454.3 255.8Z" fill="#E8E8E8"/>
</g>
</g>
<g id="Group_147">
<g id="Group_148">
<path id="Vector_74" d="M473.2 282.3C477.3 282.9 481.5 283.5 485.7 283.8C487.1 283.9 487.1 281.7 485.7 281.5C481.7 281.2 477.8 280.7 473.8 280.1C472.4 279.9 471.7 282 473.2 282.3Z" fill="#E8E8E8"/>
</g>
</g>
<g id="Group_149">
<g id="Group_150">
<path id="Vector_75" d="M477.3 289.3C480.1 289.1 482.9 288.9 485.7 288.8C487.1 288.7 487.1 286.5 485.7 286.5C482.9 286.7 480.1 286.9 477.3 287C475.8 287.2 475.8 289.4 477.3 289.3Z" fill="#E8E8E8"/>
</g>
</g>
<g id="Group_151">
<g id="Group_152">
<path id="Vector_76" d="M502.3 360.7C502.3 355.1 502.3 349.5 502.3 343.9C502.3 342.5 500 342.4 500 343.9C500 349.5 500 355.1 500 360.7C500 362.1 502.3 362.1 502.3 360.7Z" fill="#E8E8E8"/>
</g>
</g>
<g id="Group_153">
<g id="Group_154">
<path id="Vector_77" d="M502.4 345.4C527.4 345.4 552.4 345.4 577.4 345.4C578.8 345.4 578.9 343.1 577.4 343.1C552.4 343.1 527.4 343.1 502.4 343.1C501 343.2 501 345.4 502.4 345.4Z" fill="#E8E8E8"/>
</g>
</g>
<g id="Group_155">
<g id="Group_156">
<path id="Vector_78" d="M576.3 345.1C576.3 350.8 576.3 356.6 576.3 362.3C576.3 363.7 578.6 363.8 578.6 362.3C578.6 356.6 578.6 350.8 578.6 345.1C578.5 343.7 576.3 343.7 576.3 345.1Z" fill="#E8E8E8"/>
</g>
</g>
<g id="Group_157">
<g id="Group_158">
<path id="Vector_79" d="M517.4 343.1C517.4 339.3 517.4 335.6 517.4 331.8C517.4 330.4 515.1 330.3 515.1 331.8C515.1 335.6 515.1 339.3 515.1 343.1C515.1 344.5 517.4 344.5 517.4 343.1Z" fill="#E8E8E8"/>
</g>
</g>
<g id="Group_159">
<g id="Group_160">
<path id="Vector_80" d="M516.2 331.6C537.8 331.6 559.5 331.6 581.1 331.6C582.5 331.6 582.6 329.3 581.1 329.3C559.5 329.3 537.8 329.3 516.2 329.3C514.8 329.4 514.8 331.6 516.2 331.6Z" fill="#E8E8E8"/>
</g>
</g>
<g id="Group_161">
<g id="Group_162">
<path id="Vector_81" d="M580.5 330.5C580.5 335.4 580.5 340.3 580.5 345.2C580.5 346.6 582.8 346.7 582.8 345.2C582.8 340.3 582.8 335.4 582.8 330.5C582.7 329 580.5 329 580.5 330.5Z" fill="#E8E8E8"/>
</g>
</g>
<g id="Group_163">
<g id="Group_164">
<path id="Vector_82" d="M578.6 346.4C579.5 346.1 580.4 345.9 581.3 346.1C582.7 346.4 583.3 344.2 581.9 343.9C580.6 343.6 579.2 343.7 578 344.2C577.4 344.4 577 345 577.2 345.6C577.4 346.1 578 346.6 578.6 346.4Z" fill="#E8E8E8"/>
</g>
</g>
<g id="Group_165">
<g id="Group_166">
<path id="Vector_83" d="M530.7 331.6C532 335.6 532.4 339.8 531.8 344C531.6 345.4 533.8 346 534 344.6C534.7 340 534.3 335.5 532.9 331C532.4 329.6 530.3 330.2 530.7 331.6Z" fill="#E8E8E8"/>
</g>
</g>
<g id="Group_167">
<g id="Group_168">
<path id="Vector_84" d="M542.2 333.3C543.6 333.3 543.7 331 542.2 331C540.8 331 540.8 333.3 542.2 333.3Z" fill="#E8E8E8"/>
</g>
</g>
<g id="Group_169">
<g id="Group_170">
<path id="Vector_85" d="M542.9 331.1L542.8 331C542.8 331.5 542.8 332.1 542.8 332.6C542.9 332.5 542.9 332.5 543 332.4C542.5 332.5 542.1 332.5 541.6 332.6C541.3 332.2 541.3 332.4 541.6 333.2C541.7 333.7 541.8 334.1 541.8 334.6C541.9 335.6 541.9 336.6 541.9 337.6C541.8 339.7 541.4 341.6 540.7 343.6C540.2 345 542.4 345.6 542.9 344.2C543.9 341.5 544.3 338.7 544.2 335.9C544.1 334.3 544.2 331.6 542.7 330.6C542.3 330.4 541.6 330.4 541.3 330.8C541.2 330.9 541.2 330.9 541.1 331C540.7 331.5 540.6 332.1 541.1 332.6L541.2 332.7C542.4 333.7 544 332.1 542.9 331.1Z" fill="#E8E8E8"/>
</g>
</g>
<g id="Group_171">
<g id="Group_172">
<path id="Vector_86" d="M466.9 299.5C474.9 301.3 482.9 301.6 491.1 300.4C492.5 300.2 491.9 298 490.5 298.2C482.8 299.3 475.1 299 467.5 297.3C466 297 465.4 299.2 466.9 299.5Z" fill="#E8E8E8"/>
</g>
</g>
<g id="Group_173">
<g id="Group_174">
<path id="Vector_87" d="M428.8 203.6C488.3 203.6 547.8 203.6 607.4 203.6C608.8 203.6 608.9 201.3 607.4 201.3C547.9 201.3 488.4 201.3 428.8 201.3C427.4 201.3 427.4 203.6 428.8 203.6Z" fill="#E8E8E8"/>
</g>
</g>
<g id="Group_175">
<g id="Group_176">
<path id="Vector_88" d="M429.9 201.9C429.9 199.6 429.9 197.2 429.9 194.9C429.9 193.5 427.6 193.4 427.6 194.9C427.6 197.2 427.6 199.6 427.6 201.9C427.7 203.4 429.9 203.4 429.9 201.9Z" fill="#E8E8E8"/>
</g>
</g>
<g id="Group_177">
<g id="Group_178">
<path id="Vector_89" d="M428.3 195.5C487.8 195.5 547.3 195.5 606.9 195.5C608.3 195.5 608.4 193.2 606.9 193.2C547.4 193.2 487.9 193.2 428.3 193.2C426.8 193.3 426.8 195.5 428.3 195.5Z" fill="#E8E8E8"/>
</g>
</g>
<g id="Group_179">
<g id="Group_180">
<path id="Vector_90" d="M606.2 194.9C606.4 197 606.6 199.2 606.9 201.3C607 202.7 609.3 202.7 609.2 201.3C609 199.2 608.8 197 608.5 194.9C608.3 193.5 606.1 193.5 606.2 194.9Z" fill="#E8E8E8"/>
</g>
</g>
<g id="Group_181">
<g id="Group_182">
<path id="Vector_91" d="M443.2 192.7C443.2 174 443.2 155.4 443.2 136.7C443.2 135.3 440.9 135.2 440.9 136.7C440.9 155.4 440.9 174 440.9 192.7C440.9 194.1 443.2 194.1 443.2 192.7Z" fill="#E8E8E8"/>
</g>
</g>
<g id="Group_183">
<g id="Group_184">
<path id="Vector_92" d="M442 137.3C446.2 137.3 450.5 137.3 454.7 137.3C456.1 137.3 456.2 135 454.7 135C450.5 135 446.2 135 442 135C440.6 135.1 440.6 137.3 442 137.3Z" fill="#E8E8E8"/>
</g>
</g>
<g id="Group_185">
<g id="Group_186">
<path id="Vector_93" d="M453.4 137.3C453.4 155.7 453.4 174.2 453.4 192.6C453.4 194 455.7 194.1 455.7 192.6C455.7 174.2 455.7 155.7 455.7 137.3C455.6 135.8 453.4 135.8 453.4 137.3Z" fill="#E8E8E8"/>
</g>
</g>
<g id="Group_187">
<g id="Group_188">
<path id="Vector_94" d="M463.2 192.3C463.2 159.9 463.2 127.6 463.2 95.2C463.2 93.8 460.9 93.7 460.9 95.2C460.9 127.6 460.9 159.9 460.9 192.3C460.9 193.7 463.2 193.7 463.2 192.3Z" fill="#E8E8E8"/>
</g>
</g>
<g id="Group_189">
<g id="Group_190">
<path id="Vector_95" d="M462.4 94.7C470.2 94.7 477.9 94.7 485.7 94.7C487.1 94.7 487.2 92.4 485.7 92.4C477.9 92.4 470.2 92.4 462.4 92.4C460.9 92.5 460.9 94.7 462.4 94.7Z" fill="#E8E8E8"/>
</g>
</g>
<g id="Group_191">
<g id="Group_192">
<path id="Vector_96" d="M484.8 93.9C484.8 126.7 484.8 159.5 484.8 192.3C484.8 193.7 487.1 193.8 487.1 192.3C487.1 159.5 487.1 126.7 487.1 93.9C487.1 92.5 484.8 92.5 484.8 93.9Z" fill="#E8E8E8"/>
</g>
</g>
<g id="Group_193">
<g id="Group_194">
<path id="Vector_97" d="M461.8 112.4C469.6 116.8 478 114.9 486 112C487.4 111.5 486.8 109.3 485.4 109.8C478 112.4 470.2 114.5 462.9 110.4C461.6 109.7 460.5 111.7 461.8 112.4Z" fill="#E8E8E8"/>
</g>
</g>
<g id="Group_195">
<g id="Group_196">
<path id="Vector_98" d="M463.4 130C466.3 131.8 469.6 131.6 472.9 131.5C477.2 131.5 481.4 131.1 485.6 130.1C487 129.7 486.4 127.6 485 127.9C481.5 128.8 478 129.1 474.5 129.2C471.3 129.3 467.3 129.8 464.5 128C463.3 127.3 462.2 129.2 463.4 130Z" fill="#E8E8E8"/>
</g>
</g>
<g id="Group_197">
<g id="Group_198">
<path id="Vector_99" d="M499.6 192.9C499.6 190.6 499.6 188.3 499.6 186C499.6 184.6 497.3 184.5 497.3 186C497.3 188.3 497.3 190.6 497.3 192.9C497.4 194.3 499.6 194.4 499.6 192.9Z" fill="#E8E8E8"/>
</g>
</g>
<g id="Group_199">
<g id="Group_200">
<path id="Vector_100" d="M499.1 186.8C522.7 186.8 546.2 186.8 569.8 186.8C571.2 186.8 571.3 184.5 569.8 184.5C546.2 184.5 522.7 184.5 499.1 184.5C497.7 184.5 497.7 186.8 499.1 186.8Z" fill="#E8E8E8"/>
</g>
</g>
<g id="Group_201">
<g id="Group_202">
<path id="Vector_101" d="M569.3 186C569.3 188.7 569.3 191.4 569.3 194.2C569.3 195.6 571.6 195.7 571.6 194.2C571.6 191.5 571.6 188.8 571.6 186C571.6 184.5 569.3 184.5 569.3 186Z" fill="#E8E8E8"/>
</g>
</g>
<g id="Group_203">
<g id="Group_204">
<path id="Vector_102" d="M510.9 178.1C511.1 180.5 511.3 182.9 511.6 185.3C511.7 186.7 514 186.7 513.9 185.3C513.7 182.9 513.5 180.5 513.2 178.1C513 176.7 510.7 176.7 510.9 178.1Z" fill="#E8E8E8"/>
</g>
</g>
<g id="Group_205">
<g id="Group_206">
<path id="Vector_103" d="M512 178.6C531.7 178.6 551.4 178.6 571.1 178.6C572.5 178.6 572.6 176.3 571.1 176.3C551.4 176.3 531.7 176.3 512 176.3C510.6 176.4 510.6 178.6 512 178.6Z" fill="#E8E8E8"/>
</g>
</g>
<g id="Group_207">
<g id="Group_208">
<path id="Vector_104" d="M569.3 179.1C569.3 181 569.3 182.9 569.3 184.8C569.3 186.2 571.6 186.3 571.6 184.8C571.6 182.9 571.6 181 571.6 179.1C571.6 177.6 569.3 177.6 569.3 179.1Z" fill="#E8E8E8"/>
</g>
</g>
<g id="Group_209">
<g id="Group_210">
<path id="Vector_105" d="M538.3 176.6C538.3 173 538.3 169.5 538.3 165.9C538.3 164.5 536 164.4 536 165.9C536 169.5 536 173 536 176.6C536 178 538.3 178 538.3 176.6Z" fill="#E8E8E8"/>
</g>
</g>
<g id="Group_211">
<g id="Group_212">
<path id="Vector_106" d="M537.2 166.4C545.1 166.4 552.9 166.4 560.8 166.4C562.2 166.4 562.3 164.1 560.8 164.1C552.9 164.1 545.1 164.1 537.2 164.1C535.7 164.1 535.7 166.4 537.2 166.4Z" fill="#E8E8E8"/>
</g>
</g>
<g id="Group_213">
<g id="Group_214">
<path id="Vector_107" d="M559.6 165.9C559.6 169.7 559.6 173.4 559.6 177.2C559.6 178.6 561.9 178.7 561.9 177.2C561.9 173.4 561.9 169.7 561.9 165.9C561.9 164.4 559.6 164.4 559.6 165.9Z" fill="#E8E8E8"/>
</g>
</g>
<g id="Group_215">
<g id="Group_216">
<path id="Vector_108" d="M542.3 163.3C536.6 157.6 536.4 146.4 536.4 138.9C535.8 139.2 535.1 139.4 534.5 139.7C541.2 146.9 545.5 155.5 547.1 165.2C547.3 166.6 549.5 166 549.3 164.6C547.6 154.5 543.1 145.6 536.1 138.1C535.4 137.4 534.2 137.9 534.2 138.9C534.1 147.1 534.6 158.7 540.8 164.9C541.7 165.9 543.3 164.4 542.3 163.3Z" fill="#E8E8E8"/>
</g>
</g>
<g id="Group_217">
<g id="Group_218">
<path id="Vector_109" d="M548.3 160.2C550.3 150.5 557.6 143.2 560.6 133.9C559.9 133.7 559.2 133.5 558.4 133.3C557.5 137.6 558.6 142.1 558.2 146.5C557.6 152.7 555.8 158.7 553 164.3C552.3 165.6 554.3 166.7 554.9 165.4C557.3 160.6 559.1 155.6 560 150.3C560.9 144.9 559.5 139.1 560.6 133.9C560.9 132.5 558.9 131.9 558.4 133.3C555.4 142.6 548.2 149.9 546.1 159.6C545.8 161 548 161.6 548.3 160.2Z" fill="#E8E8E8"/>
</g>
</g>
<g id="Group_219">
<g id="Group_220">
<path id="Vector_110" d="M674.7 470.2C705.6 470.2 736.6 470.2 767.5 470.2C768.9 470.2 769 467.9 767.5 467.9C736.6 467.9 705.6 467.9 674.7 467.9C673.3 468 673.3 470.2 674.7 470.2Z" fill="#E8E8E8"/>
</g>
</g>
<g id="Group_221">
<g id="Group_222">
<path id="Vector_111" d="M720.8 470.2C720.8 479 720.8 487.8 720.8 496.6C720.8 498 723.1 498.1 723.1 496.6C723.1 487.8 723.1 479 723.1 470.2C723.1 468.8 720.8 468.8 720.8 470.2Z" fill="#E8E8E8"/>
</g>
</g>
<g id="Group_223">
<g id="Group_224">
<path id="Vector_112" d="M709 498.3C732.2 498.3 755.5 498.3 778.7 498.3C780.1 498.3 780.2 496 778.7 496C755.5 496 732.2 496 709 496C707.6 496.1 707.6 498.3 709 498.3Z" fill="#E8E8E8"/>
</g>
</g>
<g id="Group_225">
<g id="Group_226">
<path id="Vector_113" d="M755.1 498.9C755.1 507.1 755.1 515.4 755.1 523.6C755.1 525 757.4 525.1 757.4 523.6C757.4 515.4 757.4 507.1 757.4 498.9C757.4 497.5 755.1 497.4 755.1 498.9Z" fill="#E8E8E8"/>
</g>
</g>
<g id="Group_227">
<g id="Group_228">
<path id="Vector_114" d="M966.3 795.2C997.6 795.2 1029 795.2 1060.3 795.2C1061.7 795.2 1061.8 792.9 1060.3 792.9C1029 792.9 997.6 792.9 966.3 792.9C964.8 792.9 964.8 795.2 966.3 795.2Z" fill="#E8E8E8"/>
</g>
</g>
<g id="Group_229">
<g id="Group_230">
<path id="Vector_115" d="M1017.1 793.2C1017.1 783.3 1017.1 773.4 1017.1 763.5C1017.1 762.1 1014.8 762 1014.8 763.5C1014.8 773.4 1014.8 783.3 1014.8 793.2C1014.9 794.7 1017.1 794.7 1017.1 793.2Z" fill="#E8E8E8"/>
</g>
</g>
<g id="Group_231">
<g id="Group_232">
<path id="Vector_116" d="M994.3 763.6C1021 763.6 1047.7 763.6 1074.4 763.6C1075.8 763.6 1075.9 761.3 1074.4 761.3C1047.7 761.3 1021 761.3 994.3 761.3C992.8 761.3 992.8 763.6 994.3 763.6Z" fill="#E8E8E8"/>
</g>
</g>
<g id="Group_233">
<g id="Group_234">
<path id="Vector_117" d="M1064.3 762.5C1064.3 753.7 1064.3 744.8 1064.3 736C1064.3 734.6 1062 734.5 1062 736C1062 744.8 1062 753.7 1062 762.5C1062.1 763.9 1064.3 763.9 1064.3 762.5Z" fill="#E8E8E8"/>
</g>
</g>
<g id="Group_235">
<g id="Group_236">
<path id="Vector_118" d="M1178.3 429.8C1178.3 450.3 1178.3 470.9 1178.3 491.4C1178.3 492.8 1180.6 492.9 1180.6 491.4C1180.6 470.9 1180.6 450.3 1180.6 429.8C1180.6 428.4 1178.3 428.4 1178.3 429.8Z" fill="#E8E8E8"/>
</g>
</g>
<g id="Group_237">
<g id="Group_238">
<path id="Vector_119" d="M1181.3 430C1214.4 430 1247.4 430 1280.5 430C1281.9 430 1282 427.7 1280.5 427.7C1247.4 427.7 1214.4 427.7 1181.3 427.7C1179.8 427.7 1179.8 430 1181.3 430Z" fill="#E8E8E8"/>
</g>
</g>
<g id="Group_239">
<g id="Group_240">
<path id="Vector_120" d="M1278.5 429.2C1278.5 448.8 1278.5 468.5 1278.5 488.1C1278.5 489.5 1280.8 489.6 1280.8 488.1C1280.8 468.5 1280.8 448.8 1280.8 429.2C1280.8 427.8 1278.5 427.8 1278.5 429.2Z" fill="#E8E8E8"/>
</g>
</g>
<g id="Group_241">
<g id="Group_242">
<path id="Vector_121" d="M1180.5 492.8C1214 492.8 1247.4 492.8 1280.9 492.8C1282.3 492.8 1282.4 490.5 1280.9 490.5C1247.4 490.5 1214 490.5 1180.5 490.5C1179 490.6 1179 492.8 1180.5 492.8Z" fill="#E8E8E8"/>
</g>
</g>
<g id="Group_243">
<g id="Group_244">
<path id="Vector_122" d="M1278.9 488.2C1278.4 489.6 1278.4 491 1278.6 492.5C1278.7 493.1 1279.4 493.4 1280 493.3C1280.6 493.1 1280.9 492.5 1280.8 491.9C1280.6 490.9 1280.8 489.8 1281.1 488.8C1281.5 487.4 1279.4 486.8 1278.9 488.2Z" fill="#E8E8E8"/>
</g>
</g>
<g id="Group_245">
<g id="Group_246">
<path id="Vector_123" d="M1183 433.2C1183 450.7 1183 468.1 1183 485.6C1183 487 1185.3 487.1 1185.3 485.6C1185.3 468.1 1185.3 450.7 1185.3 433.2C1185.2 431.8 1183 431.8 1183 433.2Z" fill="#E8E8E8"/>
</g>
</g>
<g id="Group_247">
<g id="Group_248">
<path id="Vector_124" d="M1184.1 488.4C1214.2 488.4 1244.3 488.4 1274.4 488.4C1275.8 488.4 1275.9 486.1 1274.4 486.1C1244.3 486.1 1214.2 486.1 1184.1 486.1C1182.6 486.2 1182.6 488.4 1184.1 488.4Z" fill="#E8E8E8"/>
</g>
</g>
<g id="Group_249">
<g id="Group_250">
<path id="Vector_125" d="M1276.4 486.9C1276.4 469.7 1276.4 452.5 1276.4 435.3C1276.4 433.9 1274.1 433.8 1274.1 435.3C1274.1 452.5 1274.1 469.7 1274.1 486.9C1274.1 488.3 1276.4 488.3 1276.4 486.9Z" fill="#E8E8E8"/>
</g>
</g>
<g id="Group_251">
<g id="Group_252">
<path id="Vector_126" d="M1184.5 434.8C1214.6 434.8 1244.7 434.8 1274.8 434.8C1276.2 434.8 1276.3 432.5 1274.8 432.5C1244.7 432.5 1214.6 432.5 1184.5 432.5C1183.1 432.5 1183 434.8 1184.5 434.8Z" fill="#E8E8E8"/>
</g>
</g>
<g id="Group_253">
<g id="Group_254">
<path id="Vector_127" d="M1184.8 465.3C1196.7 462.5 1209.4 466.5 1221.1 468.8C1233 471.1 1244.8 473.4 1256.7 475.7C1258.1 476 1258.7 473.8 1257.3 473.5C1244.1 470.9 1231 468.4 1217.8 465.8C1206.8 463.6 1195.3 460.5 1184.1 463.1C1182.8 463.5 1183.4 465.7 1184.8 465.3Z" fill="#E8E8E8"/>
</g>
</g>
<g id="Group_255">
<g id="Group_256">
<path id="Vector_128" d="M1228.1 469.9C1230.5 471.3 1233.1 470.5 1235.7 470C1240 469.2 1244.2 468 1248.4 466.7C1257.5 464 1266.6 461 1276.1 460.2C1277.5 460.1 1277.5 457.8 1276.1 457.9C1268.4 458.5 1261 460.5 1253.7 462.7C1249.8 463.9 1245.9 465.1 1241.9 466.2C1238.7 467.1 1232.2 469.7 1229.2 467.9C1228 467.2 1226.9 469.2 1228.1 469.9Z" fill="#E8E8E8"/>
</g>
</g>
<g id="Group_257">
<g id="Group_258">
<path id="Vector_129" d="M1233.5 452.9C1228.5 449.3 1237.2 442.4 1240.6 447.7C1242.1 450.1 1240.7 452.7 1238.2 453.6C1236 454.3 1233.6 453.5 1231.7 452.4C1230.4 451.7 1229.3 453.6 1230.6 454.3C1234 456.2 1238.4 457.1 1241.6 454.2C1244.4 451.7 1244.1 447.3 1241.2 445C1234.7 439.8 1225.2 449.7 1232.4 454.8C1233.5 455.6 1234.6 453.7 1233.5 452.9Z" fill="#E8E8E8"/>
</g>
</g>
<g id="Group_259">
<g id="Group_260">
<path id="Vector_130" d="M820 996.3C902.2 996.3 984.4 996.3 1066.5 996.3C1067.9 996.3 1068 994 1066.5 994C984.3 994 902.1 994 820 994C818.6 994.1 818.6 996.3 820 996.3Z" fill="#E8E8E8"/>
</g>
</g>
<g id="Group_261">
<g id="Group_262">
<path id="Vector_131" d="M955.1 1017.8C1020.1 1017.8 1085.2 1017.8 1150.2 1017.8C1151.6 1017.8 1151.7 1015.5 1150.2 1015.5C1085.2 1015.5 1020.1 1015.5 955.1 1015.5C953.6 1015.5 953.6 1017.8 955.1 1017.8Z" fill="#E8E8E8"/>
</g>
</g>
<g id="Group_263">
<g id="Group_264">
<path id="Vector_132" d="M952.9 972.7C1012.6 972.7 1072.2 972.7 1131.9 972.7C1133.3 972.7 1133.4 970.4 1131.9 970.4C1072.2 970.4 1012.6 970.4 952.9 970.4C951.5 970.5 951.5 972.7 952.9 972.7Z" fill="#E8E8E8"/>
</g>
</g>
<g id="Group_265">
<g id="Group_266">
<path id="Vector_133" d="M1018.8 973.2C1014.7 980.7 1010.2 987.8 1005.1 994.7C1004.2 995.9 1006.2 997 1007 995.8C1012 988.9 1016.6 981.8 1020.7 974.3C1021.4 973.1 1019.5 972 1018.8 973.2Z" fill="#E8E8E8"/>
</g>
</g>
<g id="Group_267">
<g id="Group_268">
<path id="Vector_134" d="M1064.6 998C1063 1003.9 1061 1009.6 1058.4 1015.2C1057.8 1016.5 1059.7 1017.6 1060.3 1016.3C1063 1010.6 1065.1 1004.7 1066.7 998.6C1067.2 997.2 1065 996.6 1064.6 998Z" fill="#E8E8E8"/>
</g>
</g>
<g id="Group_269">
<g id="Group_270">
<path id="Vector_135" d="M256.3 938.8C285.9 938.8 315.6 938.8 345.2 938.8C347.1 938.8 347.1 935.8 345.2 935.8C315.6 935.8 285.9 935.8 256.3 935.8C254.4 935.8 254.4 938.8 256.3 938.8Z" fill="#E8E8E8"/>
</g>
</g>
<g id="Group_271">
<g id="Group_272">
<path id="Vector_136" d="M294.1 966.8C344.9 966.8 395.6 966.8 446.4 966.8C448.3 966.8 448.3 963.8 446.4 963.8C395.6 963.8 344.9 963.8 294.1 963.8C292.2 963.8 292.2 966.8 294.1 966.8Z" fill="#E8E8E8"/>
</g>
</g>
<g id="Group_273">
<g id="Group_274">
<path id="Vector_137" d="M343.8 937.9C335.9 946.1 328 954.2 320.2 962.4C318.9 963.8 321 965.9 322.3 964.5C330.2 956.3 338.1 948.2 345.9 940C347.3 938.6 345.2 936.5 343.8 937.9Z" fill="#E8E8E8"/>
</g>
</g>
<g id="Group_275">
<g id="Group_276">
<path id="Vector_138" d="M416.3 1015C493.4 1015 570.4 1015 647.5 1015C649.4 1015 649.4 1012 647.5 1012C570.4 1012 493.4 1012 416.3 1012C414.4 1012 414.4 1015 416.3 1015Z" fill="#E8E8E8"/>
</g>
</g>
<g id="Group_277">
<g id="Group_278">
<path id="Vector_139" d="M530.4 990.9C585.8 990.9 641.3 990.9 696.7 990.9C698.6 990.9 698.6 987.9 696.7 987.9C641.3 987.9 585.8 987.9 530.4 987.9C528.4 987.9 528.4 990.9 530.4 990.9Z" fill="#E8E8E8"/>
</g>
</g>
<g id="Group_279">
<g id="Group_280">
<path id="Vector_140" d="M611.2 988.6C603.1 996.6 595.1 1004.6 587 1012.6C585.6 1014 587.7 1016.1 589.1 1014.7C597.2 1006.7 605.2 998.7 613.3 990.7C614.7 989.4 612.5 987.3 611.2 988.6Z" fill="#E8E8E8"/>
</g>
</g>
<g id="Group_281">
<g id="Group_282">
<path id="Vector_141" d="M401.7 1042.2C438 1042.2 474.2 1042.2 510.5 1042.2C512.4 1042.2 512.4 1039.2 510.5 1039.2C474.2 1039.2 438 1039.2 401.7 1039.2C399.8 1039.2 399.8 1042.2 401.7 1042.2Z" fill="#E8E8E8"/>
</g>
</g>
<g id="Group_283">
<g id="Group_284">
<path id="Vector_142" d="M520.8 1013.1C516.8 1022.2 512.7 1031.3 508.7 1040.3C507.9 1042 510.5 1043.6 511.3 1041.8C515.3 1032.7 519.4 1023.6 523.4 1014.6C524.2 1012.8 521.6 1011.3 520.8 1013.1Z" fill="#E8E8E8"/>
</g>
</g>
</g>
<g id="carpet">
<path id="Vector_143" d="M721.1 950C605.1 950.6 573.1 949.4 450.2 950C432.5 950.1 418 950.2 408.2 950.2C433.9 927.8 459.6 905.5 485.3 883.1C494.1 882.9 507.1 882.7 523 882.6C579.5 882.1 613.8 882.7 656 883.1C693.9 883.4 689.5 882.9 764.8 882.6C931.6 882.1 945.5 884.8 1015.2 883.1C1028.3 882.8 1068.1 881.7 1121.7 882.2C1134.9 882.3 1145.6 882.5 1152.2 882.7C1153.7 882.3 1158.5 880.7 1161.8 875.9C1162.7 874.6 1164.7 871.5 1164.5 867.2C1164.2 859.9 1157.4 855.7 1156.8 855.4C1171.7 860.6 1183.9 865 1192.3 868.1C1237.1 884.8 1272.9 900.6 1300.2 912.7C1307.6 916 1313.7 918.7 1317.5 920.4C1318.7 920.2 1324.1 919.3 1328.9 922.7C1329.7 923.3 1334.8 926.9 1334.4 931.8C1334 936.1 1329.5 938.6 1327.1 940C1321.5 943.2 1315.9 943.2 1314.8 943.2C1300.3 943.3 1299.5 948.3 1264.3 950.5C1245 951.7 1237.3 950.7 1209.7 950C1196 949.7 1193.9 949.9 1149.6 950C1149.6 950 1096.4 950.2 1014.4 950C968 949.9 952 949.7 916.5 949.5C863.9 949.3 815.6 949.6 721.1 950Z" fill="white"/>
<g id="Group_285">
<g id="Group_286">
<path id="Vector_144" d="M483.9 881.7C457.7 904.3 431.5 926.9 405.3 949.5C403.8 950.8 406 952.9 407.4 951.6C433.6 929 459.8 906.4 486 883.8C487.5 882.6 485.4 880.5 483.9 881.7Z" fill="#161616"/>
</g>
</g>
<g id="Group_287">
<g id="Group_288">
<path id="Vector_145" d="M485.8 884.3C572.8 884.3 659.8 884.3 746.7 884.3C833.3 884.3 920 884.3 1006.6 884.3C1055.6 884.3 1104.6 884.3 1153.6 884.3C1155.5 884.3 1155.5 881.3 1153.6 881.3C1066.6 881.3 979.6 881.3 892.7 881.3C806.1 881.3 719.4 881.3 632.8 881.3C583.8 881.3 534.8 881.3 485.8 881.3C483.9 881.3 483.9 884.3 485.8 884.3Z" fill="#161616"/>
</g>
</g>
<g id="Group_289">
<g id="Group_290">
<path id="Vector_146" d="M407.7 951.5C516.2 951.5 624.6 951.5 733.1 951.5C841.2 951.5 949.4 951.5 1057.5 951.5C1118.4 951.5 1179.3 951.5 1240.2 951.5C1242.1 951.5 1242.1 948.5 1240.2 948.5C1131.7 948.5 1023.3 948.5 914.8 948.5C806.7 948.5 698.5 948.5 590.4 948.5C529.5 948.5 468.6 948.5 407.7 948.5C405.7 948.5 405.7 951.5 407.7 951.5Z" fill="#161616"/>
</g>
</g>
<g id="Group_291">
<g id="Group_292">
<path id="Vector_147" d="M1145.6 851.2C1153.5 851.2 1160.7 855.8 1162.6 863.7C1164.4 871.4 1160.2 878.9 1152.7 881.5C1150.9 882.1 1151.7 885 1153.5 884.4C1161.9 881.4 1167.2 873.3 1165.7 864.3C1164.1 854.4 1155.3 848.1 1145.5 848.1C1143.7 848.2 1143.7 851.2 1145.6 851.2Z" fill="#161616"/>
</g>
</g>
<g id="Group_293">
<g id="Group_294">
<path id="Vector_148" d="M1146.4 851.7C1203 873.3 1259.2 896.2 1314.9 920.3C1316.7 921.1 1318.2 918.5 1316.4 917.7C1260.5 893.5 1204.1 870.6 1147.2 848.8C1145.3 848.1 1144.6 851 1146.4 851.7Z" fill="#161616"/>
</g>
</g>
<g id="Group_295">
<g id="Group_296">
<path id="Vector_149" d="M1316.6 921.3C1321.7 921.1 1328.1 922.5 1331.4 926.8C1336.5 933.4 1329 937.8 1323.6 939.4C1314.7 942.1 1304.8 943 1295.6 944.5C1285.4 946.1 1275.2 947.4 1264.9 947.9C1255.5 948.4 1246 947.8 1236.6 948.3C1234.7 948.4 1234.7 951.4 1236.6 951.3C1249.9 950.5 1263.2 951.3 1276.6 950C1289.7 948.7 1302.8 946.4 1315.8 944.2C1322.8 943 1335.4 941 1336.2 931.8C1337.1 922.3 1324 918.1 1316.6 918.4C1314.7 918.4 1314.7 921.4 1316.6 921.3Z" fill="#161616"/>
</g>
</g>
</g>
<g id="girl and cat">
<g id="hand right">
<path id="Vector_150" d="M594.7 676.6C575 692.5 582.3 725.7 589 801.7C592.2 838.2 594.3 872.7 595.5 904.9C588.1 909.2 573.2 918.5 574.8 922.9C576.7 928.2 601.7 923.6 608.7 922.3C628.4 922.3 644.3 924.1 655.7 926C664.9 927.5 674.7 929.6 676 926.8C677.1 924.4 671.6 919.5 666.3 915.4C656.3 909.7 646.3 904 636.2 898.3C633.3 869.4 632.9 845.9 633 830.1C633.3 778.4 637.1 738.3 637.1 738.3C641 696.6 645.3 681.4 635.5 673.3C625.8 665.5 606.5 667.1 594.7 676.6Z" fill="white" stroke="#161616" stroke-width="2" stroke-miterlimit="10"/>
<g id="Group_297">
<g id="Group_298">
<path id="Vector_151" d="M600 925.2C606.2 923.8 611.9 921.3 617.2 917.9C618 917.4 617.3 916.1 616.4 916.6C611.2 920 605.6 922.4 599.6 923.8C598.7 923.9 599.1 925.4 600 925.2Z" fill="#161616"/>
</g>
</g>
<g id="Group_299">
<g id="Group_300">
<path id="Vector_152" d="M608.3 923.3C612.3 922.2 615.8 918.6 619.8 919.2C625.5 920 631.4 922.4 636.9 924C637.8 924.3 638.2 922.8 637.3 922.6C631.3 920.9 625.3 919.2 619.3 917.6C618.4 917.3 617.7 917 616.8 917.2C616.1 917.4 614.2 919.2 613.2 919.8C611.5 920.8 609.7 921.4 607.8 921.9C606.9 922.1 607.3 923.5 608.3 923.3Z" fill="#161616"/>
</g>
</g>
<g id="Group_301">
<g id="Group_302">
<path id="Vector_153" d="M612.2 922.1C615.8 921.3 619.2 921.3 622.9 922.1C625.6 922.7 628 923.3 630.7 923C631.6 922.9 631.7 921.4 630.7 921.5C627.1 921.9 623.9 920.6 620.4 920.2C617.5 919.9 614.6 920.1 611.7 920.7C610.9 920.9 611.3 922.3 612.2 922.1Z" fill="#161616"/>
</g>
</g>
<g id="Group_303">
<g id="Group_304">
<path id="Vector_154" d="M614 920.5C619.9 920.5 625.7 921.2 631.5 922.7C632.4 922.9 632.8 921.5 631.9 921.3C626 919.7 620.1 919 614 919C613 919 613 920.5 614 920.5Z" fill="#161616"/>
</g>
</g>
<path id="Vector_155" opacity="0.11" d="M605 672.7C610 675.7 604.4 693.2 602.7 698.8C597.5 716.5 598.5 740.7 600.4 789.2C601.5 815.9 605 853.2 615.7 898.3C650.1 914.2 666.8 923.7 665.7 926.7C664.7 929.5 648.6 926.9 617.4 918.7C613.1 920.6 606.5 923.1 598.1 924.4C596.5 924.6 577.2 927.5 575.4 922.7C573.6 917.9 589.9 907.6 595.9 903.9C594.3 879 592.9 857.9 591.9 841.9C590 812 589.9 808.7 589.1 799.8C586 765.5 583.6 763 582.3 739.6C579.7 692.5 588.4 681.3 594.2 676.5C595.6 675.6 601.8 670.8 605 672.7Z" fill="#6D6C6C"/>
<path id="Vector_156" opacity="0.19" d="M582.3 710.8C592.3 802.8 600.3 871.1 603.3 891.5C603.6 893.7 604.3 898.3 607.3 903.4C616.2 919 636.6 923.5 649.9 925C631.6 920.3 621.1 920.4 614.7 921.6C613.8 921.8 611.4 922.2 607.9 922.7C603.8 923.3 597.1 924.3 588.6 924.4C584.8 924.5 579.7 924.4 573.8 923.8C574.2 922.7 574.9 921 576.1 919.3C578 916.4 580.3 914.7 584.6 911.9C587.6 909.9 591.5 907.6 596 905.1C591.4 840.4 586.9 775.6 582.3 710.8Z" fill="#6D6C6C"/>
</g>
<g id="leg right">
<path id="Vector_157" d="M928.6 887.7C941.5 887.3 954.7 886.7 968 886C976.4 885.6 984.6 885.1 992.9 884.5C999 881.6 1005.2 878.8 1011.3 875.9C1015.3 880.2 1021.7 886.4 1030.4 892.5C1061.9 914.6 1094.1 914.4 1093.9 919.9C1093.7 923.6 1078.9 926.5 1067.4 927.3C1038.5 929.3 1015.2 919.5 1001.8 912.2C979.8 915.9 957.8 919.5 935.8 923.2C933.4 911.4 931 899.6 928.6 887.7Z" fill="#161616"/>
<path id="Vector_158" d="M825.5 661C804.4 682.5 798 716.3 808.6 748.1C794.7 799.1 780.7 850 766.8 901C766 903.5 763.4 912.5 767.7 921.4C772.8 931.9 785.3 938.1 798.8 936.5C850.4 935 901.9 933.5 953.5 932.1C956.8 909 960 885.9 963.3 862.8C933.4 864.9 903.4 866.9 873.5 869C885.5 842.7 902.5 803.1 919.7 753.4C944.5 682.1 942.9 667.4 935.7 657.4C917.6 632.3 858 627.9 825.5 661Z" fill="#A3A2A2"/>
<path id="Vector_159" opacity="0.25" d="M825.2 707.4C823.1 701.5 817.4 685.8 812.2 686.4C806.4 687 802.7 707.7 803.9 724.5C804.7 734.5 807.1 742.6 809.2 748C807.7 753.1 805.2 761.9 802.1 772.8C777.3 860.7 780.1 852.3 777.2 863C772.4 880.4 768.5 894.5 766 903.3C765.4 905.7 764 912 766.7 919.2C769.5 926.7 775 930.5 777.2 932C778.8 933.1 783.4 936.1 789.7 936.8C790.9 936.9 791.4 936.9 798.5 936.6C801.8 936.5 805.2 936.4 808.5 936.3C818 935.9 828.3 935.8 831.8 935.8C840.3 935.7 868.4 934.9 953.3 932C955.1 920.2 956.9 908.3 958.6 896.5C845.7 930.8 808.6 922.2 797.6 905.3C774.8 870 848.5 772.2 825.2 707.4Z" fill="#6D6C6C"/>
<path id="Vector_160" opacity="0.3" d="M768.2 896.6C778.7 857.9 789.2 819.1 799.6 780.4C797.2 790.4 776.9 877.7 788.3 909.5C789.1 911.9 791.2 917.5 796.2 922.7C809.8 936.8 832.2 935 840.2 934C826.3 935.5 814.3 936.3 804.8 936.6C792.8 937.1 786.2 936.9 779.3 933C777.1 931.8 771.5 928.5 768 921.7C762.3 910.3 767.4 898.4 768.2 896.6Z" fill="#6D6C6C"/>
</g>
<g id="leg left">
<path id="Vector_161" d="M1172.9 606.6C1184.8 601.5 1196.8 596.2 1209 590.7C1216.6 587.2 1224.2 583.8 1231.6 580.3C1236.3 575.4 1241 570.5 1245.7 565.6C1251 568.2 1259.2 571.6 1269.5 574.2C1306.9 583.3 1336.8 571.4 1338.6 576.6C1339.8 580.1 1327 588.2 1316.6 593.1C1290.4 605.4 1265.2 604.8 1249.9 602.9C1230.7 614.3 1211.6 625.7 1192.4 637.1C1185.9 627 1179.4 616.8 1172.9 606.6Z" fill="#161616"/>
<path id="Vector_162" d="M821.9 642.4C825.8 641 831.9 638.9 839.7 637.1C886.4 626.2 918.1 643.1 958.8 648.7C994.8 653.7 1022.4 647.7 1051.3 641.6C1080.1 635.4 1127.1 621 1178.4 582.9C1183.5 586 1194 593.3 1201.5 606.9C1210 622.2 1209.9 636.6 1209.5 642.5C1186.2 660.5 1151.1 684.2 1104.6 703.8C1074.9 716.4 1050.1 722.5 1000.6 734.9C946.2 748.5 909.2 757.5 859.2 758C833.6 758.3 812.6 756.2 798.7 754.4C806.5 717 814.2 679.7 821.9 642.4Z" fill="#A3A2A2"/>
<path id="Vector_163" opacity="0.13" d="M798.7 754C808 755.4 820.5 757 835.2 757.7C846.2 758.3 866.4 759 896.5 755.6C926 752.3 950 746.8 996.6 735.8C1023.1 729.6 1036.8 726.4 1053.9 721.1C1070.7 715.9 1091.2 709.6 1116.9 697.9C1123.9 694.7 1152 681.7 1186.1 659C1195.6 652.7 1203.3 647.1 1208.8 643C1209.3 639.5 1209.6 634.7 1209 629.1C1208.2 622.7 1206.5 617.6 1204.9 614.1C1102.9 673.9 975.4 720.4 834.8 706C826.3 705.1 817.9 704.1 809.6 702.8C806.1 719.9 802.4 736.9 798.7 754Z" fill="#6D6C6C"/>
<path id="Vector_164" opacity="0.11" d="M799 753.7C800.8 745.3 802.7 736.9 804.5 728.5C839.8 733.2 880.8 735.6 926.1 732.6C1053 724.2 1150.6 677.8 1208.8 643.2C1192.8 655.3 1169 671.8 1138.3 687.8C1086.1 714.9 1044.5 724.6 971.4 741.7C907.5 756.6 876.7 758.2 853.5 758C831.1 757.6 812.3 755.6 799 753.7Z" fill="#6D6C6C"/>
</g>
<g id="torso">
<path id="Vector_165" d="M573.1 600.7C548.3 607.4 529.3 657.7 540.4 696.2C551.7 735.5 591.1 751.1 622.1 763.4C681 786.7 736.2 776 763.3 770.7C783.1 766.9 799.1 761.7 810.1 757.7C815.9 752.5 833 735.7 839.1 706.7C846.4 672.1 832.7 644.8 829.4 638.7C776.1 659.4 735.5 656.7 712 652.5C658.4 642.8 619.1 620.9 619.1 620.9C594.2 607 585.9 597.2 573.1 600.7Z" fill="white" stroke="#161616" stroke-width="2" stroke-miterlimit="10"/>
<path id="Vector_166" opacity="0.13" d="M543.5 640.6C542.8 662.6 603.3 681.8 606.8 683C627.7 690 660.2 697.7 741.6 694.2C766.2 693.2 800.1 690.9 840.6 685.5C840.7 679.6 840.4 672.1 838.6 663.5C836.4 653.4 832.9 645.3 829.9 639.5C823.9 641.4 815.4 644 805.1 646.9C796.1 649.4 790.2 651 783.4 652.4C783.4 652.4 766.8 655.8 748.2 656.1C721.3 656.5 698.8 649.9 676 643.1C652.6 636.2 625 625.6 612.2 616.7C608.2 613.9 604.7 611.9 597.8 607.8C586.5 601.2 583.6 600.4 580.7 600.1C573.1 599.4 567 603.2 564 605.2C554.8 611 550.9 619.6 548.2 625.6C547.2 627.8 543.6 635.5 543.5 640.6Z" fill="#6D6C6C"/>
<path id="Vector_167" opacity="0.15" d="M570.4 601.8C586.9 614.7 610.4 630.9 640.9 645.4C656.9 653 682.7 665 716.5 671.7C740.5 676.4 784.1 681.6 839 667.8C838.4 663 837.1 657.1 834.5 650.6C832.8 646.4 830.9 642.7 829.1 639.7C804.6 650.3 783.1 654.2 768.6 655.7C732.9 659.5 705.2 652.8 688.7 648.7C674 645 655.7 640.5 635.5 629.3C628.1 625.3 615.4 617.5 594.1 606.6C589.1 604 584.9 601.9 582 600.6C578 601 574.2 601.4 570.4 601.8Z" fill="#6D6C6C"/>
</g>
<g id="cat">
<g id="body">
<path id="Vector_168" d="M717.3 607C723.4 603.2 728.5 602.5 739.4 600.8C767.5 596.3 764.8 596.1 770.1 595.9C782.8 595.4 791.4 595 800.6 600.2C803.5 601.8 810.7 606 814.8 614.8C815.5 616.3 820.5 627.3 816.5 636.5C812.1 646.6 794.1 649.2 758.1 654.5C753.1 655.2 738.9 657.2 721.4 654.1C710 652.1 706.7 649.5 704.7 647C698.4 639.1 701.1 626 706 618C709.7 611.8 714.7 608.6 717.3 607Z" fill="#161616"/>
</g>
<g id="tail">
<path id="Vector_169" d="M809.6 622.3C810.7 620.1 817.5 620.6 822.3 623.4C827 626.1 830.9 631.7 830.9 637.6C830.8 644 826.2 648.5 819.5 655C810.8 663.5 804.4 665.8 805.1 668.5C806.1 672.6 820.7 669.8 822.9 675.4C824.8 680.2 816.7 688.6 814.3 687.6C812.7 686.9 814.7 682.7 812.2 679.9C808.9 676.3 802.8 679.9 799.7 676.7C797.2 674 798.3 668.5 799.9 665.1C802.1 660.7 804.9 660.6 813.4 653.1C819.9 647.4 820.6 645.4 820.7 643.9C820.8 642.5 820.5 641 816.4 634.5C811 625.6 808.8 623.7 809.6 622.3Z" fill="#161616"/>
</g>
<g id="leg front">
<path id="Vector_170" d="M785.1 624C782.6 625.7 776.6 630 775.9 637.7C775.3 644.6 779.4 649.7 780.4 650.8C765 655.9 761.7 658.3 761.9 659.6C762.4 662.1 776.2 662.6 787.7 659.4C792 658.2 795.9 656.5 798.9 655.1C804.6 652.5 807.5 651.3 809 649.3C812.8 644.4 811.5 637.5 810.5 632.6C809.4 627.1 808.7 623.2 805.3 620.8C799.3 616.5 789.7 620.8 785.1 624Z" fill="#161616"/>
</g>
<g id="head 1">
<path id="Vector_171" d="M686.6 629.5C684.4 626.2 683.9 622.6 683.6 619.8C682.6 612.6 684.4 606.7 685.6 603.6C685.2 599 684.7 594.4 684.3 589.9C685.8 590.6 687.5 591.5 689.3 592.6C692.4 594.6 694.9 596.7 696.8 598.5C699.3 597.2 702.1 595.9 705.4 594.7C708.9 593.4 712.2 592.5 715.1 591.8C715.7 590.2 717.1 587.4 719.9 584.9C721.8 583.2 723.8 582.2 725.1 581.7C725.1 582.6 725.1 583.5 725.2 584.5C725.6 587.8 726.5 590.6 727.5 592.6C729 593.7 735.6 598.8 737.2 608.1C738.5 615.4 735.9 621.3 734.4 623.9C728.5 634.6 716.6 636.9 713.9 637.4C705.4 639.1 692.2 638 686.6 629.5Z" fill="#161616"/>
<g id="Group_305">
<g id="Group_306">
<path id="Vector_172" d="M724.5 562.2C725.9 560.7 726.1 561.9 726.4 563.3C726.6 564.4 726.7 565.6 726.9 566.7C727.1 567.9 727.6 569.2 728.8 569.8C731.8 571.3 735.4 567.4 737.5 565.7C739 564.4 736.8 562.3 735.4 563.6C734.4 564.5 733.3 565.3 732.2 566.1C731 567 730.3 567.4 729.9 565.7C729.5 563.9 729.6 561.9 728.8 560.2C727.4 557.2 724.3 558.2 722.5 560.2C721.1 561.5 723.2 563.6 724.5 562.2Z" fill="white"/>
</g>
</g>
<g id="Group_307">
<g id="Group_308">
<path id="Vector_173" d="M691.6 618.1C696.3 622.5 703.8 620.4 705.2 614C705.4 613.1 704 612.7 703.8 613.6C702.7 618.8 696.7 620.8 692.8 617.1C691.9 616.4 690.9 617.5 691.6 618.1Z" fill="white"/>
</g>
</g>
<g id="Group_309">
<g id="Group_310">
<path id="Vector_174" d="M713.6 617C713.5 617 713.5 617.1 713.4 617.1C713.6 617.3 713.9 617.5 714.1 617.7C714.1 617.6 714.1 617.6 714.1 617.5C713.9 617.7 713.8 617.8 713.6 618C713.5 617.9 713.5 617.8 713.4 617.7C713.7 617.8 714.1 617.9 714.4 618C714.4 617.9 714.3 617.8 714.3 617.6C713.8 617.8 713.4 618 712.9 618.2C714.2 620.6 712.2 623.4 709.5 622.9C708.6 622.7 708.2 624.2 709.1 624.3C713.1 625.1 716.1 621 714.2 617.4C713.8 616.6 712.7 617.2 712.8 618C712.9 618.3 712.9 618.5 713.1 618.7C713.3 619.1 713.8 619.1 714.1 619C715.7 618.3 714.7 616.1 713.1 616.6C712.9 616.7 712.6 616.9 712.6 617.1C712.5 617.5 712.5 617.7 712.6 618.1C712.6 618.4 713 618.7 713.3 618.7C713.7 618.6 713.9 618.6 714.3 618.4C715.2 617.8 714.5 616.5 713.6 617Z" fill="white"/>
</g>
</g>
<g id="Group_311">
<g id="Group_312">
<path id="Vector_175" d="M713.6 618.1C714.5 622.9 721.2 623 722.3 618.3C722.5 617.4 721.1 617 720.9 617.9C720.1 621.2 715.7 621 715.1 617.7C714.9 616.7 713.4 617.1 713.6 618.1Z" fill="white"/>
</g>
</g>
<g id="Group_313">
<g id="Group_314">
<path id="Vector_176" d="M716.6 610.5C722 612.9 727.9 609.6 728.5 603.7C728.6 602.7 727.1 602.7 727 603.7C726.5 608.4 721.7 611.2 717.3 609.2C716.5 608.8 715.7 610.1 716.6 610.5Z" fill="white"/>
</g>
</g>
</g>
<g id="paw right">
<path id="Vector_177" d="M672.9 642.4C672 639.1 673.3 635 675.9 632.7C679.1 629.9 683.3 630.6 688.6 631.4C694 632.3 706.3 634.3 712 644.5C713.4 647 715.3 650.4 713.9 652.9C710.9 658.5 694.3 654.6 686 651.6C679.7 649.4 674.2 647.4 672.9 642.4Z" fill="#161616"/>
</g>
<g id="paw left">
<path id="Vector_178" d="M746.5 620.6C744.3 620.8 744.5 624.6 740.9 629.4C737.4 634 733 636.1 725 639.7C717.2 643.3 714.1 643.3 710.4 647.4C709.5 648.4 706 652.3 707.2 654.9C708.4 657.5 713.6 657.3 716.9 657.3C719.6 657.2 721.7 656.9 732.4 653.7C737.1 652.3 741 651 745.9 648.8C750.2 646.8 751.3 645.8 752.1 644.7C755 640.8 754.1 635.7 753.6 632.9C752.6 627.5 749.5 620.3 746.5 620.6Z" fill="#161616"/>
</g>
</g>
<g id="head">
<path id="Vector_179" d="M504.1 610.5C504.7 618.5 511 623.8 517.4 629.2C522.9 633.9 534 641.7 551.8 644.9C555.1 642.5 560.7 637.9 565.1 630.2C568.7 623.8 570 617.8 570.5 614C554.6 604.5 538.8 595 522.9 585.5C510.9 591.5 503.4 601.2 504.1 610.5Z" fill="white" stroke="#161616" stroke-width="2" stroke-miterlimit="10"/>
<path id="Vector_180" d="M499.4 504.6C489.9 507.8 484.5 515.2 474.2 529.7C462.6 546.1 453.8 560.7 449.3 571.7C448.6 573.3 449.1 575.2 450.5 576.3C452.3 577.7 455.9 578.8 457.9 579.7C457.1 585.2 456.6 593.2 458.5 602.4C461.9 619 471.2 630 475.8 634.8C484.2 635.6 497.4 635.7 512.1 630.4C517 628.6 525.7 625.4 534.6 617.6C542.4 610.8 547 603.5 549.6 598.6C552.1 599.2 556.2 599.6 560.6 598.2C569.9 595.3 579.3 584.9 576.3 576.8C574.1 570.8 565.4 566.9 555.5 568.5C556.4 564.7 557.3 559.2 557.3 552.6C557.3 551 557 538.9 552.7 529.4C544.5 511.3 518.7 498.1 499.4 504.6Z" fill="white" stroke="#161616" stroke-width="2" stroke-miterlimit="10"/>
<path id="Vector_181" d="M457.6 553.7C455.5 548.3 451.2 535 455.3 519.3C456.7 514 459.5 503.9 468.9 495.7C480.2 485.8 493.5 485.3 497.3 485.3C499.5 482.8 503.3 479.2 508.9 476.9C511.1 476 517.2 473.8 530.5 475.7C537.5 476.7 548.1 479.1 560.1 485.3C569.4 490.2 575.1 495.7 578.5 499.7C593.9 517.8 588.1 534.1 604.1 548.2C610.3 553.7 612 552 621.3 559.8C624.6 562.6 632.9 570 640.1 581.4C645.1 589.3 657.7 609.1 654.8 634.2C652.6 653.9 640.1 682.5 621.9 684.8C602.2 687.3 597.4 656.1 558.1 641.1C536 632.7 519.7 635.7 517.2 627.5C514.5 618.5 531.4 605.4 545.5 596C547.5 597.3 551.4 599.5 555.9 598.8C565.2 597.4 571.6 584.8 568.3 577.2C567 574.1 564.3 572.5 563.5 572C556.8 568.1 549.3 572.1 548.7 572.4C540.6 563.5 534.7 555.3 530.7 549.2C525.3 540.9 522.8 535.5 521.9 533.6C519.1 527.5 517.4 522.1 516.3 518C510.5 518.3 502.5 519.4 493.9 522.8C491.9 523.6 484.9 526.5 477.1 532.4C476.1 533.1 471.8 536.4 466.9 541.8C462.9 546 459.8 550.3 457.6 553.7Z" fill="#232323"/>
<g id="Group_315">
<g id="Group_316">
<path id="Vector_182" d="M474.8 554.7C476.9 558.6 479.3 561.3 483.8 562.1C488.2 562.9 492.5 561.9 496.1 559.2C497.2 558.3 496.1 556.4 495 557.3C492.2 559.4 488.9 560.4 485.4 560.1C481.1 559.7 478.8 557.3 476.8 553.6C476 552.3 474.1 553.4 474.8 554.7Z" fill="#161616"/>
</g>
</g>
<g id="Group_317">
<g id="Group_318">
<path id="Vector_183" d="M477.9 541.5C484.9 537.4 491.9 539.1 498.5 543.4C499.7 544.2 500.8 542.2 499.6 541.5C492.4 536.8 484.5 535.1 476.8 539.6C475.6 540.3 476.7 542.3 477.9 541.5Z" fill="#161616"/>
</g>
</g>
<g id="Group_319">
<g id="Group_320">
<path id="Vector_184" d="M483.7 576.2C483.4 577.5 482.9 577.5 482.2 576.2C482.3 576 482.4 575.9 482.5 575.7C482.7 575.6 483 575.6 483.2 575.7C483.4 576 483.6 576.3 483.8 576.7C483.7 576.7 483.7 576.8 483.7 576.9C483.2 576.9 482.6 576.9 482.1 576.9C482.3 576.5 482.5 576 482.6 575.6C482 575.5 481.5 576.2 481.5 576.7C481.5 577.4 482 577.8 482.6 577.8C483.9 577.9 484.7 576.1 483.6 575.3C483.1 574.9 482.5 574.9 482 575.3C481.2 576 481.2 577.5 482.3 577.9C483.2 578.2 484.3 577.5 484.3 576.5C484.3 575.5 483.4 574.8 482.5 575C481.7 575.2 481.1 576 481.4 576.8C482 578.1 484.1 577.6 483.7 576.2Z" fill="#161616"/>
</g>
</g>
<g id="Group_321">
<g id="Group_322">
<path id="Vector_185" d="M494.4 572.5C494.5 573 493.8 573.3 493.4 572.9C493.3 572.8 493.2 572.7 493.2 572.5C494 571.6 494.4 571.6 494.6 572.6C495 571.2 492.9 570.6 492.4 572C492.1 573 492.9 574 493.9 574C494.9 574 495.6 573.2 495.4 572.2C495.3 571.3 494.4 570.6 493.4 570.8C492.4 571 491.9 572.1 492.1 573C492.6 574.5 494.8 573.9 494.4 572.5Z" fill="#161616"/>
</g>
</g>
<g id="Group_323">
<g id="Group_324">
<path id="Vector_186" d="M491.1 582C491.8 582 491.4 583.4 490.7 583C489.9 582.6 491 581.3 491.4 582.1C490.7 580.8 488.8 582 489.5 583.2C490 584.1 491.2 584.3 492 583.7C493 583 492.9 581.6 491.9 581C491 580.4 489.7 580.8 489.4 581.9C489.1 583 490 584.3 491.2 584.2C491.8 584.2 492.3 583.7 492.3 583.1C492.2 582.5 491.7 581.9 491.1 582Z" fill="#161616"/>
</g>
</g>
<g id="Group_325">
<g id="Group_326">
<path id="Vector_187" d="M458.6 598C466.5 598.1 473.7 595.2 479.3 589.6C480.3 588.6 478.7 587 477.7 588C472.5 593.2 465.9 595.8 458.6 595.7C457.1 595.7 457.1 597.9 458.6 598Z" fill="#161616"/>
</g>
</g>
<path id="Vector_188" opacity="0.1" d="M516.3 517.5C517.9 528.9 519.8 538.2 521.1 544.5C524.7 561.4 527.3 568.2 525.9 578.9C524.8 587.1 522 593 520.4 596.3C508.8 620.5 483.1 631.7 475 634.9C479.5 635.3 484.9 635.4 490.8 634.9C501.6 633.9 510.5 631.1 516.9 628.5C519.3 630.9 522.3 633.5 525.9 635.9C535.6 642.3 545.2 644.4 551.3 645.2C553.7 643.6 556 642 558.4 640.4C563.1 642.4 570 645.7 577.6 651.1C600.4 667.2 605.9 685 619.7 684.4C626.6 684.1 633 679.5 634.4 678.4C638.1 675.6 640.8 672.3 643.8 667.1C647.6 660.5 655 647.4 655.3 628.5C655.5 616.8 652.8 607.1 650.3 600.5C627.7 628.6 593.7 638 570 626.2C554.1 618.3 546.9 602.9 544.2 595.9C552.6 600.4 562.3 598.1 566.7 591.7C570 586.9 571.1 578.5 565.7 573.4C561.4 569.2 554.4 568.5 548.6 571.8C543.3 566.3 537.5 559.2 531.9 550.6C524.2 538.4 519.3 526.7 516.3 517.5Z" fill="#6D6C6C"/>
</g>
<g id="hand left">
<path id="Vector_189" d="M321.7 502.2C333.9 501.6 343.6 509.8 346.8 512.5C347.6 513.2 350 515.1 355.6 522.3C361 529.3 363.6 534.8 371.1 544.5C378.8 554.5 386.4 560.1 401.5 571.3C415.3 581.6 426.2 587.4 441.8 595.8C467.2 609.3 487.5 620.2 516 628.6C533.6 633.8 537.5 633 552.5 639C571.9 646.7 591.2 654.4 594.4 670.4C596.2 679.2 593 690.1 585.6 695.7C578.6 701 568.1 701.5 539.2 691.1C490.5 673.6 455.2 649 437 635.4C431.8 631.5 424.8 625.7 410.7 614.2C386.2 594.2 366.5 577.5 353.3 566C350 565.3 343.2 563.9 334.4 562.1C320.6 559.3 316.7 558.6 311.6 555.8C304.4 551.9 296.1 544.9 297.4 541.6C299.1 537.4 316.2 541 319 541.5C317.4 539 314.9 535.8 311.2 532.6C302.6 525.2 296.4 525.9 295.3 522.1C293.6 516 307 502.9 321.7 502.2Z" fill="white" stroke="#161616" stroke-width="2" stroke-miterlimit="10"/>
<g id="Group_327">
<g id="Group_328">
<path id="Vector_190" d="M296.9 517.5C305.8 517.6 312.3 523.4 318.4 529.1C319.5 530.1 321 528.5 320 527.5C313.4 521.3 306.3 515.3 296.9 515.2C295.5 515.3 295.5 517.5 296.9 517.5Z" fill="#161616"/>
</g>
</g>
<g id="Group_329">
<g id="Group_330">
<path id="Vector_191" d="M303.2 510.7C312.1 511 319.9 514.8 325.7 521.6C326.6 522.7 328.2 521.1 327.3 520C321.2 512.8 312.6 508.8 303.2 508.5C301.7 508.4 301.7 510.6 303.2 510.7Z" fill="#161616"/>
</g>
</g>
<g id="Group_331">
<g id="Group_332">
<path id="Vector_192" d="M316.4 504.4C322.7 505.9 328.2 509.3 332.3 514.3C333.2 515.4 334.8 513.8 333.9 512.7C329.5 507.4 323.7 503.8 317 502.2C315.6 501.9 315 504.1 316.4 504.4Z" fill="#161616"/>
</g>
</g>
<path id="Vector_193" opacity="0.16" d="M296.7 516.2C299.1 514.3 304.2 517.2 308.6 519.8C314.3 523.1 318.1 526.3 319.4 527.3C322 529 323.7 532 323.7 532C326.1 535.9 338.1 540.4 338.1 540.4C344 542.6 346.9 546.5 363 559.9C381 574.8 393.8 587.4 396.9 590.4C424.2 616.5 479.9 648.5 538.4 662.4C563.4 668.3 592.4 671.9 593.6 682.8C594.2 688.7 586.7 694.5 581.7 697.1C576.3 700 562.5 705.1 507 678C491.1 670.2 473.7 661.7 451.6 646.5C442.4 640.2 435.9 635.1 404.2 608.8C390.7 597.6 373.5 583.3 353.4 566.4C342.8 564.8 310.1 559.4 299.7 547.2C298.7 546 296.3 543.2 297.2 541.4C298.7 538.1 309.8 540.1 319.3 542.4C315.6 536.3 311.6 532.9 308.8 530.8C302.5 526.3 296.5 525.2 295.7 520.6C295.3 519.1 295.5 517.1 296.7 516.2Z" fill="#6D6C6C"/>
<path id="Vector_194" opacity="0.11" d="M297.8 542.2C302 544.5 306.6 546.8 311.6 549C328.1 556.2 343.7 559.5 356.5 561C358.9 562.8 362.7 565.6 367.3 569.2C384.7 583.1 396.3 594.9 398.8 597.5C414.6 613.3 450.1 638.7 486.9 657.2C510 668.8 544.5 683.3 589.5 691.8C588.3 693.6 585.9 696.6 581.9 698.2C579.7 699.1 577.3 699.5 571.8 699.1C563 698.5 557.3 696.8 557.3 696.8C530 688.7 501.9 674.7 501.9 674.7C484.9 666.3 476.4 662.1 466.5 655.8C451.3 646.3 440.9 637.7 435 632.8C413.7 615.2 386.2 592.7 353.1 565.5C342.5 564.2 333.8 562.3 327.3 560.7C309.3 556.2 303.8 552.4 300.5 547.4C298.9 545.4 298.2 543.4 297.8 542.2Z" fill="#6D6C6C"/>
</g>
</g>
</g>
</svg>
